<?xml version="1.0" encoding="UTF-8"?>
<svg version="1.1" xmlns="http://www.w3.org/2000/svg" width="326" height="326">
<path d="M0 0 C0.93223389 0.38551025 0.93223389 0.38551025 1.88330078 0.77880859 C10.71545683 4.53437691 17.95041729 9.53788252 25 16 C25.8146875 16.74507812 26.629375 17.49015625 27.46875 18.2578125 C35.43906582 25.88274797 41.37191565 34.98889556 46 45 C46 45.99 46 46.98 46 48 C48.77223484 46.54431948 51.54253635 45.08499701 54.3125 43.625 C55.09818359 43.2125 55.88386719 42.8 56.69335938 42.375 C57.45068359 41.97539063 58.20800781 41.57578125 58.98828125 41.1640625 C59.68477783 40.79748535 60.38127441 40.4309082 61.09887695 40.05322266 C62.78255225 39.12046611 64.39848207 38.06767862 66 37 C66.268125 35.741875 66.53625 34.48375 66.8125 33.1875 C67.586392 29.73329911 68.14061145 28.8393012 70.625 26 C75.04065457 23.38331581 76.93540619 23.35687698 82 24 C85.87029748 25.68273803 87.41296621 27.15369539 89 31 C89.52227887 34.07319883 89.55289179 36.92898721 89 40 C86.81840855 42.75569447 85.12822506 44.43588747 82 46 C80.52331663 46.0952699 79.04224543 46.12985959 77.5625 46.125 C76.38880859 46.12886719 76.38880859 46.12886719 75.19140625 46.1328125 C73 46 73 46 70 45 C68.18012602 45.65662348 68.18012602 45.65662348 66.34765625 46.80078125 C65.30641602 47.40116211 65.30641602 47.40116211 64.24414062 48.01367188 C63.52419922 48.44228516 62.80425781 48.87089844 62.0625 49.3125 C60.63710493 50.14259056 59.21133502 50.97203788 57.78515625 51.80078125 C57.15488525 52.17372314 56.52461426 52.54666504 55.87524414 52.9309082 C53.94936783 54.02886581 51.99107258 55.02610281 50 56 C50.2165625 56.845625 50.433125 57.69125 50.65625 58.5625 C50.9346875 59.696875 51.213125 60.83125 51.5 62 C51.91765625 63.670625 51.91765625 63.670625 52.34375 65.375 C53.0694474 69.38361421 53.10694194 72.93620645 53 77 C57.39713684 77.00626437 61.79099708 76.94666994 66.1875 76.875 C68.05631836 76.87886719 68.05631836 76.87886719 69.96289062 76.8828125 C76.2423715 77.00424571 76.2423715 77.00424571 81.82519531 74.66137695 C83.27654432 72.86106544 83.27654432 72.86106544 85 70 C88.49749027 68.214179 92.17175126 67.5921599 96.03125 68.453125 C99.20169345 69.71592875 101.94133533 71.25511378 104 74 C105.60816725 78.82450176 105.80474053 83.1893338 103.75 87.8125 C100.68932699 91.63834126 98.47517099 93.11004015 93.625 93.875 C89.29128624 94.22426312 86.64460843 93.51651534 83 91 C80 87.7 80 87.7 80 85 C71.09 85 62.18 85 53 85 C53 87.31 53 89.62 53 92 C52.6328125 94.17163086 52.6328125 94.17163086 52.125 95.96484375 C51.94453125 96.61904297 51.7640625 97.27324219 51.578125 97.94726562 C51.38734375 98.60404297 51.1965625 99.26082031 51 99.9375 C50.80921875 100.62134766 50.6184375 101.30519531 50.421875 102.00976562 C49.95595063 103.67544526 49.47911589 105.33806675 49 107 C49.8559375 107.24492187 50.711875 107.48984375 51.59375 107.7421875 C55.30663906 109.1132314 58.1884236 110.96628548 61.5 113.125 C67.74657978 116.98587943 72.52263209 117.67967381 79.94140625 116.890625 C83.87957372 117.03145347 85.28006774 118.2259642 88 121 C89.23917206 124.71751617 89.54318961 128.1373183 89 132 C87.22210886 135.02899973 85.73009767 136.5538292 82.75 138.375 C78.9697718 139.23414277 75.65513202 139.25276702 72 138 C68.27471195 134.74037296 67.08776187 133.08824723 66.6875 128.125 C66.8421875 126.578125 66.8421875 126.578125 67 125 C66.33613281 124.75507813 65.67226563 124.51015625 64.98828125 124.2578125 C61.2561603 122.68690669 57.74550093 120.80210864 54.1875 118.875 C53.49462891 118.50246094 52.80175781 118.12992187 52.08789062 117.74609375 C50.39065164 116.83309623 48.69514862 115.91687284 47 115 C46.16855469 116.37285156 46.16855469 116.37285156 45.3203125 117.7734375 C44.58869002 118.97404875 43.85691102 120.17456463 43.125 121.375 C42.76019531 121.97828125 42.39539063 122.5815625 42.01953125 123.203125 C40.49053678 125.70511595 39.08128646 127.91871354 37 130 C34.53842677 129.63532248 32.31700554 128.76354503 29.96484375 127.94921875 C24.60813706 126.42271418 19.18420364 126.9445085 13.67578125 127.16601562 C12.85980469 127.18470703 12.04382813 127.20339844 11.203125 127.22265625 C10.46739258 127.25109619 9.73166016 127.27953613 8.97363281 127.30883789 C7 127 7 127 5.85394287 125.50970459 C2.99159743 123.17883662 -0.10025476 123.54412929 -3.63671875 123.53588867 C-4.4126236 123.52248444 -5.18852844 123.5090802 -5.98794556 123.49526978 C-8.55449621 123.45486001 -11.1207014 123.43592694 -13.6875 123.41796875 C-15.46965777 123.39604516 -17.25180333 123.37310772 -19.03393555 123.34919739 C-22.7696614 123.30230728 -26.50530506 123.26566569 -30.24121094 123.23657227 C-35.03342581 123.19872453 -39.82504592 123.13871651 -44.6169281 123.07145214 C-48.29709058 123.0216843 -51.97730655 122.98202778 -55.65762329 122.94561195 C-57.42472406 122.92721248 -59.19179808 122.90603069 -60.95883179 122.88204002 C-63.42701533 122.85036985 -65.8949464 122.83190799 -68.36328125 122.81713867 C-69.09584137 122.80531052 -69.82840149 122.79348236 -70.5831604 122.78129578 C-74.29271386 122.77396761 -75.82533537 122.88355691 -79 125 C-80.02110539 127.87116002 -80.02110539 127.87116002 -80.6875 131.125 C-80.93886719 132.22070312 -81.19023438 133.31640625 -81.44921875 134.4453125 C-81.63097656 135.28835937 -81.81273438 136.13140625 -82 137 C-85.02590754 137.66583151 -87.89614074 138.09453378 -91 138 C-93.625 136.1875 -93.625 136.1875 -96 133 C-96.56589844 132.2471875 -97.13179688 131.494375 -97.71484375 130.71875 C-101.38317486 125.69321393 -104.30817824 120.595399 -107 115 C-108.10859375 115.55429688 -109.2171875 116.10859375 -110.359375 116.6796875 C-123 123 -123 123 -125.20239258 123.99511719 C-127.20396844 124.84621714 -127.20396844 124.84621714 -127.65234375 127.0234375 C-127.74644531 127.79945313 -127.84054688 128.57546875 -127.9375 129.375 C-128.56506102 132.74002545 -128.85883741 133.83867133 -131.1875 136.5 C-134.63585451 138.3391224 -137.08594975 138.93133245 -141 139 C-144.56347797 137.76648839 -146.46294353 136.64446777 -148.875 133.75 C-150.33017877 130.19289634 -150.46888682 127.81807842 -150 124 C-148.54030131 120.6363465 -147.43906727 118.60563063 -143.9765625 117.1484375 C-140.12468398 116.16246177 -137.48757968 115.89361898 -133.5625 116.75 C-128.73802433 117.0885597 -126.45945535 115.22745243 -122.50390625 112.63671875 C-113.88066826 107 -113.88066826 107 -110 107 C-110.2165625 106.24976563 -110.433125 105.49953125 -110.65625 104.7265625 C-110.9346875 103.70304687 -111.213125 102.67953125 -111.5 101.625 C-111.7784375 100.62726563 -112.056875 99.62953125 -112.34375 98.6015625 C-113 95 -113 95 -113 85 C-122.24 85 -131.48 85 -141 85 C-141.66 86.65 -142.32 88.3 -143 90 C-146.21709609 92.90576421 -148.91477724 93.89565166 -153.25 94.3125 C-158.03097231 93.91408564 -160.09381175 92.75730935 -164 90 C-166.62852445 85.84832397 -166.55453829 81.7690293 -166 77 C-164.39571169 73.31013689 -162.55142572 70.91968958 -159 69 C-152.96885931 67.61580377 -149.54482685 67.84705924 -144 71 C-141 74.19354839 -141 74.19354839 -141 77 C-131.76 77 -122.52 77 -113 77 C-113 73.04 -113 69.08 -113 65 C-112.09380153 61.52623921 -111.23628984 58.32620837 -110 55 C-111.00546875 54.75636719 -112.0109375 54.51273438 -113.046875 54.26171875 C-117.88981421 52.88028619 -121.85933735 50.30288146 -126.1015625 47.65820312 C-127.69348577 46.70061609 -129.34425316 45.84243401 -131 45 C-131.99 45.33 -132.98 45.66 -134 46 C-138.30013364 46.41873961 -141.93069736 46.4550224 -145.9375 44.75 C-149.51692071 41.71291576 -149.90717575 39.8221576 -150.4375 35.125 C-150.33897037 30.33287732 -148.35822174 28.27826408 -145 25 C-141.79888929 23.39944465 -138.48117737 23.64518769 -135 24 C-131.05394939 25.49073023 -130.17585901 26.66647429 -128.1875 30.4375 C-127 34 -127 34 -127 38 C-125.98873047 38.38285156 -125.98873047 38.38285156 -124.95703125 38.7734375 C-121.44867244 40.22868805 -118.07321448 41.90947835 -114.6875 43.625 C-114.04232422 43.94984375 -113.39714844 44.2746875 -112.73242188 44.609375 C-111.15402459 45.40441956 -109.57688306 46.20195634 -108 47 C-107.443125 45.96101563 -106.88625 44.92203125 -106.3125 43.8515625 C-92.8353226 19.05653446 -75.45751296 4.25516521 -48.42578125 -4.10546875 C-32.90234413 -7.82961875 -14.64164049 -6.20093784 0 0 Z M-45.61328125 13.51953125 C-51.63760756 19.7804923 -55.11649004 26.91926551 -58 35 C-55.06271706 35.33534729 -52.12520182 35.66836013 -49.1875 36 C-48.35412109 36.09539062 -47.52074219 36.19078125 -46.66210938 36.2890625 C-45.85966797 36.37929687 -45.05722656 36.46953125 -44.23046875 36.5625 C-43.49207764 36.64628906 -42.75368652 36.73007813 -41.99291992 36.81640625 C-39.83566803 37.04586728 -39.83566803 37.04586728 -37 37 C-37 27.43 -37 17.86 -37 8 C-40.66124782 8 -43.01861638 11.15884582 -45.61328125 13.51953125 Z M-24 8 C-24 17.57 -24 27.14 -24 37 C-21.64875 36.855625 -19.2975 36.71125 -16.875 36.5625 C-16.14651855 36.51939697 -15.41803711 36.47629395 -14.66748047 36.43188477 C-10.72219294 36.1788171 -6.886347 35.7203665 -3 35 C-6.96861895 24.19145715 -12.21077715 14.58641643 -22 8 C-22.66 8 -23.32 8 -24 8 Z M1 15 C3.64 20.61 6.28 26.22 9 32 C14.445 30.515 14.445 30.515 20 29 C14.88791374 23.73300204 9.58384496 18.38597741 3 15 C2.34 15 1.68 15 1 15 Z M-63 15 C-69.4378492 18.93488794 -75.41715684 22.91340956 -81 28 C-76.96707255 30.2344598 -73.55032566 30.54496743 -69 31 C-67.80274117 28.71296692 -66.61702982 26.42115138 -65.4375 24.125 C-65.09525391 23.47402344 -64.75300781 22.82304688 -64.40039062 22.15234375 C-63.53917109 20.46470143 -62.76313297 18.73420407 -62 17 C-62.33 16.34 -62.66 15.68 -63 15 Z M-89 39 C-96.0398907 49.25812644 -101 61.42487846 -101 74 C-93.41 74 -85.82 74 -78 74 C-77.69255859 71.50566406 -77.69255859 71.50566406 -77.37890625 68.9609375 C-77.1068366 66.76561685 -76.83469754 64.5703048 -76.5625 62.375 C-76.42779297 61.28058594 -76.29308594 60.18617188 -76.15429688 59.05859375 C-76.02216797 57.99511719 -75.89003906 56.93164062 -75.75390625 55.8359375 C-75.63345947 54.86188965 -75.5130127 53.8878418 -75.38891602 52.88427734 C-74.98794008 49.91056125 -74.50819427 46.95711535 -74 44 C-78.96260257 42.08460953 -83.86626838 40.39038565 -89 39 Z M19.9375 40.875 C18.85339844 41.22304687 17.76929688 41.57109375 16.65234375 41.9296875 C13.86758349 42.71309458 13.86758349 42.71309458 13 45 C13.3719502 47.46677373 13.80858607 49.87243614 14.3125 52.3125 C14.59811561 53.75616305 14.88194265 55.20018099 15.1640625 56.64453125 C15.30618164 57.3710791 15.44830078 58.09762695 15.59472656 58.84619141 C16.54088765 63.87452461 17.25233796 68.93890309 18 74 C25.26 74 32.52 74 40 74 C39.53895578 61.24444313 35.89724678 49.25947309 28 39 C25.10060633 39 22.68804575 39.9767288 19.9375 40.875 Z M-62 47 C-62.7115625 49.784375 -62.7115625 49.784375 -63.4375 52.625 C-63.70433594 53.66914063 -63.97117187 54.71328125 -64.24609375 55.7890625 C-65.32083367 61.79201398 -65.56550693 67.91709706 -66 74 C-56.43 74 -46.86 74 -37 74 C-37 65.75 -37 57.5 -37 49 C-45.25 48.34 -53.5 47.68 -62 47 Z M-12.0625 47.9375 C-13.09439453 48.02451172 -14.12628906 48.11152344 -15.18945312 48.20117188 C-16.16978516 48.28818359 -17.15011719 48.37519531 -18.16015625 48.46484375 C-19.51572632 48.58267212 -19.51572632 48.58267212 -20.89868164 48.70288086 C-22.98327477 48.78289319 -22.98327477 48.78289319 -24 50 C-24.08726223 51.78071246 -24.10699041 53.5648314 -24.09765625 55.34765625 C-24.09515869 56.31968994 -24.09266113 57.29172363 -24.09008789 58.29321289 C-24.08098389 59.53707764 -24.07187988 60.78094238 -24.0625 62.0625 C-24.041875 66.001875 -24.02125 69.94125 -24 74 C-14.1 74 -4.2 74 6 74 C4.8413647 60.19656744 4.8413647 60.19656744 1 47 C-3.3607041 47 -7.72160669 47.55375959 -12.0625 47.9375 Z M-101 87 C-99.47155738 99.64438893 -96.24466037 110.44349489 -89 121 C-83.7415998 120.32584613 -78.97361654 118.75734451 -74 117 C-74.79800216 110.49202121 -75.6717025 103.99586471 -76.5625 97.5 C-77.036875 94.035 -77.51125 90.57 -78 87 C-85.59 87 -93.18 87 -101 87 Z M-66 87 C-65.30877649 97.41645351 -65.30877649 97.41645351 -63.4375 107.3125 C-62.963125 109.189375 -62.48875 111.06625 -62 113 C-49.625 112.01 -49.625 112.01 -37 111 C-36.09740212 105.64706274 -36.09740212 105.64706274 -36.12109375 100.4765625 C-36.16419678 99.76064941 -36.2072998 99.04473633 -36.25170898 98.30712891 C-36.31302002 97.42202637 -36.37433105 96.53692383 -36.4375 95.625 C-36.623125 92.77875 -36.80875 89.9325 -37 87 C-46.57 87 -56.14 87 -66 87 Z M-24 87 C-24 94.92 -24 102.84 -24 111 C-18.01754681 111.61524141 -18.01754681 111.61524141 -12.03466797 112.22631836 C-7.65902256 112.68159052 -3.33135964 113.21183456 1 114 C2.53813629 110.45194613 3.4838227 107.12394283 4.125 103.3125 C4.29257813 102.35988281 4.46015625 101.40726563 4.6328125 100.42578125 C5.10993346 95.97434416 5 91.47693383 5 87 C-4.57 87 -14.14 87 -24 87 Z M18 87 C16.12203163 96.96767825 14.55775889 106.97841783 13 117 C17.95 118.65 22.9 120.3 28 122 C34.54728524 110.19622448 39.13434217 100.67739369 40 87 C32.74 87 25.48 87 18 87 Z " fill="#3667E2" transform="translate(193,81)"/>
<path d="M0 0 C1.15623619 -0.00021904 1.15623619 -0.00021904 2.33583069 -0.0004425 C4.88976838 0.0002555 7.4436336 0.00804264 9.99755859 0.01586914 C11.76589925 0.01773372 13.53424043 0.01915743 15.30258179 0.02015686 C19.96164369 0.02397889 24.62067452 0.03380651 29.27972412 0.04486084 C34.03201884 0.0550817 38.78431856 0.05965593 43.53662109 0.06469727 C52.86475976 0.07542905 62.19287535 0.09250172 71.52099609 0.11352539 C72.01599609 2.58852539 72.01599609 2.58852539 72.52099609 5.11352539 C73.71644043 5.08210449 73.71644043 5.08210449 74.93603516 5.05004883 C78.54756044 4.96689217 82.15888433 4.91486505 85.77099609 4.86352539 C87.65238281 4.81325195 87.65238281 4.81325195 89.57177734 4.76196289 C90.77705078 4.74907227 91.98232422 4.73618164 93.22412109 4.72290039 C94.33432617 4.70195312 95.44453125 4.68100586 96.58837891 4.65942383 C100.2274674 5.22291905 101.2563805 6.27153172 103.52099609 9.11352539 C104.84545898 10.97290039 104.84545898 10.97290039 105.99365234 12.86352539 C106.41839844 13.55446289 106.84314453 14.24540039 107.28076172 14.95727539 C107.71066406 15.66883789 108.14056641 16.38040039 108.58349609 17.11352539 C109.44771738 18.53120786 110.31355686 19.94790536 111.18115234 21.36352539 C111.7827417 22.35739258 111.7827417 22.35739258 112.39648438 23.37133789 C113.54851966 25.25062415 113.54851966 25.25062415 115.39208984 27.23852539 C117.09175905 30.06150539 116.21372171 31.9523851 115.52099609 35.11352539 C114.82877577 37.06854862 114.07563767 39.00280547 113.27099609 40.91430664 C112.82755859 41.97327148 112.38412109 43.03223633 111.92724609 44.12329102 C111.46318359 45.21319336 110.99912109 46.3030957 110.52099609 47.42602539 C110.05693359 48.53526367 109.59287109 49.64450195 109.11474609 50.78735352 C105.66934265 58.96517883 105.66934265 58.96517883 104.52099609 60.11352539 C106.53922526 60.27628581 108.55745443 60.43904622 110.57568359 60.60180664 C112.52099609 61.11352539 112.52099609 61.11352539 114.52099609 64.11352539 C113.98045555 68.65406593 113.98045555 68.65406593 112.52099609 70.11352539 C109.65832042 70.18677707 106.8202771 70.20590744 103.95849609 70.17602539 C103.1521875 70.17151367 102.34587891 70.16700195 101.51513672 70.16235352 C99.51705853 70.15053057 97.51901826 70.13259453 95.52099609 70.11352539 C95.22837891 70.72969727 94.93576172 71.34586914 94.63427734 71.98071289 C92.84033721 75.41752452 90.61006651 77.52483868 87.20849609 79.36352539 C82.2619505 80.74395672 78.84357816 80.82568496 74.27099609 78.36352539 C71.85545996 76.38717765 70.1184062 74.77587557 68.52099609 72.11352539 C68.52099609 71.45352539 68.52099609 70.79352539 68.52099609 70.11352539 C53.01099609 70.11352539 37.50099609 70.11352539 21.52099609 70.11352539 C20.86099609 71.76352539 20.20099609 73.41352539 19.52099609 75.11352539 C15.87345189 78.48048927 13.25061955 79.94721544 8.27099609 80.42602539 C3.45398829 80.02460807 1.4543756 78.91227619 -2.47900391 76.11352539 C-2.96433594 74.82768555 -2.96433594 74.82768555 -3.45947266 73.51586914 C-5.22468145 70.91093974 -5.22468145 70.91093974 -7.83789062 70.63232422 C-10.91344636 70.42975979 -13.95931089 70.36726365 -17.04150391 70.36352539 C-19.14702848 70.33044766 -21.25250574 70.29415174 -23.35791016 70.25415039 C-24.2919165 70.24931641 -25.22592285 70.24448242 -26.18823242 70.23950195 C-28.47900391 70.11352539 -28.47900391 70.11352539 -30.47900391 69.11352539 C-30.60400391 66.23852539 -30.60400391 66.23852539 -30.47900391 63.11352539 C-27.70858281 60.3431043 -25.71366585 60.71556433 -21.85400391 60.48852539 C-20.66548828 60.41375977 -19.47697266 60.33899414 -18.25244141 60.26196289 C-17.33720703 60.21297852 -16.42197266 60.16399414 -15.47900391 60.11352539 C-15.99462891 59.22665039 -16.51025391 58.33977539 -17.04150391 57.42602539 C-18.56879392 53.90661796 -18.69576105 52.66240039 -17.47900391 49.11352539 C-17.14900391 48.78352539 -16.81900391 48.45352539 -16.47900391 48.11352539 C-16.49962891 47.14415039 -16.52025391 46.17477539 -16.54150391 45.17602539 C-16.47900391 42.11352539 -16.47900391 42.11352539 -14.47900391 40.11352539 C-11.22119141 39.91821289 -11.22119141 39.91821289 -7.35400391 39.98852539 C-5.43201172 40.0155957 -5.43201172 40.0155957 -3.47119141 40.04321289 C-2.48376953 40.06641602 -1.49634766 40.08961914 -0.47900391 40.11352539 C-0.47900391 39.45352539 -0.47900391 38.79352539 -0.47900391 38.11352539 C-2.136698 38.12923584 -2.136698 38.12923584 -3.82788086 38.14526367 C-7.92599247 38.18144946 -12.02408994 38.20442068 -16.12231445 38.22338867 C-17.89642715 38.2334495 -19.67052325 38.24709961 -21.44458008 38.2644043 C-23.99385675 38.28864917 -26.54291428 38.30000757 -29.09228516 38.30883789 C-30.28305412 38.32432175 -30.28305412 38.32432175 -31.49787903 38.34011841 C-35.36123434 38.34090649 -37.18739837 38.30792908 -40.47900391 36.11352539 C-40.97900391 33.67602539 -40.97900391 33.67602539 -40.47900391 31.11352539 C-35.77848349 26.83425102 -29.7892862 27.73594738 -23.83447266 27.82055664 C-22.7095491 27.82480148 -21.58462555 27.82904633 -20.4256134 27.8334198 C-16.83899829 27.85018849 -13.25294869 27.88783851 -9.66650391 27.92602539 C-7.23226724 27.94107452 -4.79802175 27.95476252 -2.36376953 27.96704102 C3.59801138 28.00008614 9.55946333 28.05026811 15.52099609 28.11352539 C15.52099609 27.45352539 15.52099609 26.79352539 15.52099609 26.11352539 C13.863302 26.15280151 13.863302 26.15280151 12.17211914 26.19287109 C8.07418035 26.28333176 3.97632982 26.34075875 -0.12231445 26.38818359 C-1.89655392 26.41333745 -3.67068967 26.447465 -5.44458008 26.49072266 C-7.99407508 26.55134002 -10.54220142 26.57972466 -13.09228516 26.60180664 C-14.28305412 26.64051628 -14.28305412 26.64051628 -15.49787903 26.68000793 C-17.74194336 26.68115234 -17.74194336 26.68115234 -21.47900391 26.11352539 C-23.53833008 23.72363281 -23.53833008 23.72363281 -24.47900391 21.11352539 C-23.91650391 18.86352539 -23.91650391 18.86352539 -22.47900391 17.11352539 C-18.83885962 15.77581026 -15.14278188 16.00014925 -11.30712891 16.01586914 C-10.6247113 16.01728409 -9.9422937 16.01869904 -9.23919678 16.02015686 C-7.06908707 16.02573455 -4.8990822 16.03828285 -2.72900391 16.05102539 C-1.25374498 16.05604328 0.22151556 16.06060568 1.69677734 16.06469727 C5.30488408 16.07569664 8.91292984 16.09294586 12.52099609 16.11352539 C12.02599609 15.12352539 12.02599609 15.12352539 11.52099609 14.11352539 C0.63099609 13.61852539 0.63099609 13.61852539 -10.47900391 13.11352539 C-10.47900391 3.61352539 -10.47900391 3.61352539 -9.47900391 1.11352539 C-6.45136061 -0.40029626 -3.31998838 -0.01631713 0 0 Z M70.52099609 10.11352539 C69.31656414 17.1680554 68.23999108 23.9478975 68.52099609 31.11352539 C68.85099609 31.11352539 69.18099609 31.11352539 69.52099609 31.11352539 C70.72542805 24.05899538 71.80200111 17.27915329 71.52099609 10.11352539 C71.19099609 10.11352539 70.86099609 10.11352539 70.52099609 10.11352539 Z M83.52099609 16.11352539 C82.24960801 21.04015422 82.52099609 24.65037962 82.52099609 30.11352539 C88.79099609 30.11352539 95.06099609 30.11352539 101.52099609 30.11352539 C100.57224609 28.36040039 99.62349609 26.60727539 98.64599609 24.80102539 C97.84548828 23.32182617 97.84548828 23.32182617 97.02880859 21.81274414 C95.51377483 19.01766081 95.51377483 19.01766081 93.52099609 16.11352539 C91.08406299 15.74936492 91.08406299 15.74936492 88.39599609 15.92602539 C87.48591797 15.9530957 86.57583984 15.98016602 85.63818359 16.00805664 C84.93951172 16.04286133 84.24083984 16.07766602 83.52099609 16.11352539 Z M67.52099609 31.11352539 C67.31603516 32.17313477 67.11107422 33.23274414 66.89990234 34.32446289 C66.62791943 35.71251362 66.35577566 37.10053283 66.08349609 38.48852539 C65.94878906 39.18719727 65.81408203 39.88586914 65.67529297 40.60571289 C64.63427734 45.88696289 64.63427734 45.88696289 63.52099609 48.11352539 C64.51099609 48.11352539 65.50099609 48.11352539 66.52099609 48.11352539 C68.04206243 45.07139272 67.89528947 41.83304967 68.08349609 38.48852539 C68.14827148 37.42891602 68.14827148 37.42891602 68.21435547 36.34790039 C68.3204436 34.60334002 68.42122498 32.85845842 68.52099609 31.11352539 C68.19099609 31.11352539 67.86099609 31.11352539 67.52099609 31.11352539 Z M4.77099609 62.61352539 C4.35849609 63.10852539 3.94599609 63.60352539 3.52099609 64.11352539 C4.22439176 66.62318153 4.22439176 66.62318153 5.52099609 69.11352539 C7.40949965 70.18995248 7.40949965 70.18995248 9.52099609 70.11352539 C10.51099609 69.45352539 11.50099609 68.79352539 12.52099609 68.11352539 C12.93766276 65.61352539 12.93766276 65.61352539 12.52099609 63.11352539 C11.86099609 62.45352539 11.20099609 61.79352539 10.52099609 61.11352539 C6.64301948 60.67966447 6.64301948 60.67966447 4.77099609 62.61352539 Z M77.52099609 63.11352539 C77.70928381 65.55832618 77.70928381 65.55832618 78.52099609 68.11352539 C80.48857883 69.4737269 80.48857883 69.4737269 82.52099609 70.11352539 C83.84099609 69.12352539 85.16099609 68.13352539 86.52099609 67.11352539 C85.94754672 64.24627853 85.65954459 63.25207389 83.52099609 61.11352539 C80.33609603 60.83617529 80.33609603 60.83617529 77.52099609 63.11352539 Z " fill="#3668E1" transform="translate(124.47900390625,205.886474609375)"/>
<path d="M0 0 C0.67155931 -0.00297112 1.34311862 -0.00594224 2.03502822 -0.0090034 C4.28416803 -0.01767137 6.53325449 -0.01919704 8.78240967 -0.02069092 C10.39561578 -0.02532046 12.00882079 -0.03034531 13.62202454 -0.03573608 C18.00441605 -0.04884952 22.38679226 -0.05530306 26.76920033 -0.05974674 C29.50840523 -0.06267936 32.24760597 -0.06678455 34.98680878 -0.07125092 C43.56075529 -0.08492348 52.13469226 -0.09459114 60.70864892 -0.09845281 C70.59919766 -0.10293216 80.4896081 -0.12047539 90.38011479 -0.1494534 C98.02951694 -0.17108564 105.67888023 -0.18115792 113.32831264 -0.18249393 C117.89488592 -0.18354091 122.46132916 -0.18942594 127.02787018 -0.20731354 C131.32559936 -0.22382075 135.62310112 -0.2259369 139.92085075 -0.21717453 C141.49458107 -0.21640555 143.06832375 -0.22072844 144.64202309 -0.23063278 C156.23326673 -0.29928151 164.63207735 0.44683511 173.32049561 8.82012939 C179.53965714 16.07785426 179.71844615 24.39695589 179.93377686 33.57794189 C179.96930664 34.55005615 180.00483643 35.52217041 180.04144287 36.52374268 C180.03560916 39.2002511 179.95667693 41.54250092 179.30877686 44.14044189 C176.44158936 46.56622314 176.44158936 46.56622314 173.30877686 48.14044189 C171.68998772 49.98320286 171.68998772 49.98320286 170.55877686 51.89044189 C169.81627686 52.96294189 169.07377686 54.03544189 168.30877686 55.14044189 C167.64877686 55.14044189 166.98877686 55.14044189 166.30877686 55.14044189 C166.28690308 53.72565552 166.28690308 53.72565552 166.2645874 52.2822876 C166.20338079 48.76885528 166.12920177 45.25618743 166.04632568 41.7432251 C166.0131577 40.22542568 165.98510053 38.70750533 165.96234131 37.18951416 C165.92864407 35.0020617 165.87632482 32.81570926 165.82049561 30.62872314 C165.79431152 29.31428223 165.76812744 27.99984131 165.7411499 26.64556885 C165.10802423 21.51299668 163.66945472 19.20832297 159.61859226 16.02914333 C155.87138743 13.89085153 153.78722906 13.63999835 149.50871277 13.63923645 C148.84966212 13.63370205 148.19061147 13.62816766 147.51158959 13.62246555 C145.31656018 13.60891778 143.12267955 13.62379455 140.92767334 13.63873291 C139.3487093 13.6349476 137.76974858 13.6294458 136.1907959 13.62236023 C131.91188465 13.60841705 127.63337601 13.61956676 123.35448718 13.63607144 C118.87383898 13.64993698 114.3932138 13.64346024 109.91255188 13.63993835 C102.38969444 13.6372377 94.86699669 13.65070033 87.34417725 13.67388916 C78.64855759 13.70050768 69.95320473 13.7022424 61.25755829 13.6905008 C52.88861584 13.67972006 44.51976983 13.68591178 36.15083504 13.70005608 C32.59072653 13.70581234 29.03068868 13.70573605 25.47057915 13.70099068 C21.27866603 13.69621674 17.08704495 13.70633971 12.89518738 13.72794533 C11.35730029 13.73350735 9.8193851 13.73398384 8.28149605 13.72899246 C6.18129297 13.72303107 4.08198021 13.73555963 1.9818573 13.75276184 C0.21955607 13.75640668 0.21955607 13.75640668 -1.57834721 13.76012516 C-6.40832107 14.35022895 -8.88183359 16.17483911 -11.96563721 19.8538208 C-14.00427025 23.73668412 -14.23068062 26.35653381 -14.30059814 30.72637939 C-14.3171344 31.42816315 -14.33367065 32.1299469 -14.35070801 32.85299683 C-14.39893004 35.07390312 -14.42049922 37.29412617 -14.44122314 39.51544189 C-14.46940476 41.02979871 -14.49933525 42.54412405 -14.53106689 44.05841064 C-14.60467882 47.75227376 -14.65441208 51.4460077 -14.69122314 55.14044189 C-16.60528564 54.81622314 -16.60528564 54.81622314 -18.69122314 54.14044189 C-19.14497314 53.21231689 -19.59872314 52.28419189 -20.06622314 51.32794189 C-21.41384448 47.89638696 -21.41384448 47.89638696 -24.75372314 46.64044189 C-27.69122314 44.14044189 -27.69122314 44.14044189 -28.2444458 41.81158447 C-28.4300627 38.83831543 -28.41002992 35.9303688 -28.31622314 32.95294189 C-28.32266846 31.94940674 -28.32911377 30.94587158 -28.33575439 29.91192627 C-28.20371455 20.68714279 -25.59947027 13.47893433 -19.33575439 6.64434814 C-13.51688388 1.32305326 -7.6812999 0.01899849 0 0 Z " fill="#3361D6" transform="translate(86.69122314453125,57.85955810546875)"/>
<path d="M0 0 C1.32 0 2.64 0 4 0 C4.01458252 0.87736816 4.02916504 1.75473633 4.04418945 2.65869141 C4.1054968 5.93549321 4.17969333 9.21148944 4.26245117 12.48779297 C4.29556291 13.9017449 4.32363716 15.31582464 4.34643555 16.72998047 C4.38023775 18.77105823 4.43255964 20.81097928 4.48828125 22.8515625 C4.51446533 24.07697754 4.54064941 25.30239258 4.56762695 26.56494141 C5.04085104 30.32454782 6.03967147 32.77403825 8 36 C12.22330675 39.14040759 16.15795242 40.05789762 21.328125 40.31640625 C22.52695313 40.37924805 22.52695313 40.37924805 23.75 40.44335938 C24.575 40.48267578 25.4 40.52199219 26.25 40.5625 C27.51070312 40.62727539 27.51070312 40.62727539 28.796875 40.69335938 C30.86440671 40.79908543 32.93218281 40.90001295 35 41 C36.45184478 45.53701494 37.23509196 49.18061476 37 54 C7.93292056 54.53717395 7.93292056 54.53717395 -1.72265625 45.36328125 C-8.49817304 37.95516093 -9.54397194 31.08914148 -9.5625 21.3125 C-9.59923828 20.28060547 -9.63597656 19.24871094 -9.67382812 18.18554688 C-9.69052247 15.32710431 -9.6332445 12.78846736 -9 10 C-6.08203125 7.49609375 -6.08203125 7.49609375 -3 6 C-1.11431306 2.89985071 -1.11431306 2.89985071 0 0 Z " fill="#3262D8" transform="translate(68,212)"/>
<path d="M0 0 C3.83203125 0.80957031 3.83203125 0.80957031 5.34375 2.5234375 C5.7253125 3.13445312 6.106875 3.74546875 6.5 4.375 C7.94371357 6.66738304 8.69942983 7.84116659 11.12890625 9.125 C13.84605741 11.84782371 13.49521985 14.1962645 13.49804688 17.93359375 C13.47806641 18.82175781 13.45808594 19.70992187 13.4375 20.625 C13.44458984 21.48996094 13.45167969 22.35492188 13.45898438 23.24609375 C13.36936452 32.4424695 11.27434071 39.56146999 4.87890625 46.27734375 C-1.85548717 52.45170446 -9.99217071 54.19233799 -19 54 C-20.4386066 49.72306146 -19.49730024 47.1107885 -17.64453125 43.1171875 C-14.98966132 39.69927894 -11.62935557 38.9452 -7.55859375 37.8515625 C-4.85985846 36.95335747 -3.71884629 36.22955781 -2 34 C-0.83597273 30.50791819 -0.78881492 27.60852228 -0.68359375 23.92578125 C-0.66281265 23.2419487 -0.64203156 22.55811615 -0.62062073 21.8535614 C-0.55533846 19.6733079 -0.49633983 17.49293595 -0.4375 15.3125 C-0.39429447 13.83267014 -0.35067953 12.35285217 -0.30664062 10.87304688 C-0.19967917 7.24882378 -0.09835177 3.62446811 0 0 Z " fill="#3765DB" transform="translate(253,212)"/>
<path d="M0 0 C2.8581372 3.72423938 2.8581372 3.72423938 3.0625 6.6875 C2.7325 7.3475 2.4025 8.0075 2.0625 8.6875 C3.3825 9.0175 4.7025 9.3475 6.0625 9.6875 C4.7425 10.0175 3.4225 10.3475 2.0625 10.6875 C2.0625 11.3475 2.0625 12.0075 2.0625 12.6875 C11.9625 12.6875 21.8625 12.6875 32.0625 12.6875 C32.5575 15.1625 32.5575 15.1625 33.0625 17.6875 C33.26875 18.3475 33.475 19.0075 33.6875 19.6875 C34.16468864 22.23250607 33.68510447 24.19708213 33.0625 26.6875 C34.0525 27.0175 35.0425 27.3475 36.0625 27.6875 C36.0625 30.3275 36.0625 32.9675 36.0625 35.6875 C30.7890625 38.91015625 30.7890625 38.91015625 29.0625 39.6875 C28.0725 39.1925 28.0725 39.1925 27.0625 38.6875 C31.8125 35.6875 31.8125 35.6875 34.0625 35.6875 C33.8459375 34.93726563 33.629375 34.18703125 33.40625 33.4140625 C33.1278125 32.39054687 32.849375 31.36703125 32.5625 30.3125 C32.2840625 29.31476563 32.005625 28.31703125 31.71875 27.2890625 C31.0625 23.6875 31.0625 23.6875 31.0625 13.6875 C21.8225 13.6875 12.5825 13.6875 3.0625 13.6875 C2.0725 16.1625 2.0725 16.1625 1.0625 18.6875 C-2.15459609 21.59326421 -4.85227724 22.58315166 -9.1875 23 C-13.96847231 22.60158564 -16.03131175 21.44480935 -19.9375 18.6875 C-22.56602445 14.53582397 -22.49203829 10.4565293 -21.9375 5.6875 C-20.06213087 1.37415101 -17.51598219 -1.2074362 -13.1875 -3.0625 C-7.80153727 -3.6609403 -4.21944102 -3.32168761 0 0 Z " fill="#3769E6" transform="translate(48.9375,152.3125)"/>
<path d="M0 0 C2.9576473 2.29217666 3.81597278 3.44791835 5 7 C5.34531267 12.35234642 5.47574585 15.65531768 2 20 C-1.05276933 23.28759774 -4.44223555 23.71923444 -8.75 24.06640625 C-12.13215494 23.9665857 -14.24313519 22.90354951 -17 21 C-20 17.7 -20 17.7 -20 15 C-28.91 15 -37.82 15 -47 15 C-47 14.67 -47 14.34 -47 14 C-37.76 14 -28.52 14 -19 14 C-19 13.67 -19 13.34 -19 13 C-19.84304688 13.02320313 -20.68609375 13.04640625 -21.5546875 13.0703125 C-23.19824219 13.09738281 -23.19824219 13.09738281 -24.875 13.125 C-25.96554687 13.14820313 -27.05609375 13.17140625 -28.1796875 13.1953125 C-31 13 -31 13 -33 11 C-32 10 -32 10 -28.83984375 9.90234375 C-26.90818359 9.91974609 -26.90818359 9.91974609 -24.9375 9.9375 C-23.64714844 9.94652344 -22.35679687 9.95554688 -21.02734375 9.96484375 C-20.02832031 9.97644531 -19.02929688 9.98804688 -18 10 C-18.33 9.34 -18.66 8.68 -19 8 C-28.57 8 -38.14 8 -48 8 C-48 5.03 -48 2.06 -48 -1 C-47.67 -1 -47.34 -1 -47 -1 C-47 1.64 -47 4.28 -47 7 C-42.60286316 7.00626437 -38.20900292 6.94666994 -33.8125 6.875 C-31.94368164 6.87886719 -31.94368164 6.87886719 -30.03710938 6.8828125 C-23.7396028 6.98729111 -23.7396028 6.98729111 -18.11767578 4.65917969 C-16.61568487 2.87892196 -16.61568487 2.87892196 -15 0 C-9.87677142 -2.79448832 -5.28438084 -1.97913123 0 0 Z " fill="#3361D4" transform="translate(293,151)"/>
<path d="M0 0 C3.87029748 1.68273803 5.41296621 3.15369539 7 7 C7.52227887 10.07319883 7.55289179 12.92898721 7 16 C4.81840855 18.75569447 3.12822506 20.43588747 0 22 C-1.47668337 22.0952699 -2.95775457 22.12985959 -4.4375 22.125 C-5.61119141 22.12886719 -5.61119141 22.12886719 -6.80859375 22.1328125 C-9 22 -9 22 -12 21 C-13.83832927 21.70651576 -13.83832927 21.70651576 -15.6875 22.90625 C-16.38617188 23.32003906 -17.08484375 23.73382813 -17.8046875 24.16015625 C-18.52914063 24.60230469 -19.25359375 25.04445312 -20 25.5 C-21.43185954 26.37389292 -22.86916925 27.23893603 -24.3125 28.09375 C-25.26576172 28.67672852 -25.26576172 28.67672852 -26.23828125 29.27148438 C-28 30 -28 30 -31 29 C-28.47211993 26.20127563 -26.79588866 24.54226981 -23 24 C-23 23.34 -23 22.68 -23 22 C-23.99 22.33 -24.98 22.66 -26 23 C-26 22.34 -26 21.68 -26 21 C-26.94875 21.515625 -27.8975 22.03125 -28.875 22.5625 C-29.90625 23.036875 -30.9375 23.51125 -32 24 C-32.66 23.67 -33.32 23.34 -34 23 C-32.95199219 22.44570312 -31.90398437 21.89140625 -30.82421875 21.3203125 C-29.44526849 20.58862461 -28.06636466 19.8568492 -26.6875 19.125 C-25.99720703 18.76019531 -25.30691406 18.39539063 -24.59570312 18.01953125 C-23.92861328 17.66503906 -23.26152344 17.31054688 -22.57421875 16.9453125 C-21.96151123 16.62062988 -21.34880371 16.29594727 -20.7175293 15.96142578 C-19.09741352 15.05452942 -17.54484566 14.0298971 -16 13 C-15.731875 11.741875 -15.46375 10.48375 -15.1875 9.1875 C-14.413608 5.73329911 -13.85938855 4.8393012 -11.375 2 C-6.95934543 -0.61668419 -5.06459381 -0.64312302 0 0 Z " fill="#3767E6" transform="translate(275,105)"/>
<path d="M0 0 C3.94605061 1.49073023 4.82414099 2.66647429 6.8125 6.4375 C8 10 8 10 8 14 C8.7425 14.268125 9.485 14.53625 10.25 14.8125 C12.86636554 15.94229421 14.80187111 17.20893202 17 19 C15.35 19.33 13.7 19.66 12 20 C11.34 19.01 10.68 18.02 10 17 C9.236875 17.185625 8.47375 17.37125 7.6875 17.5625 C5 18 5 18 2 17 C2 17.66 2 18.32 2 19 C4.31 19.33 6.62 19.66 9 20 C9.33 20.99 9.66 21.98 10 23 C8.329375 22.4740625 8.329375 22.4740625 6.625 21.9375 C3.19735524 20.62760669 3.19735524 20.62760669 1 22 C-3.28819956 22.43808718 -6.94422448 22.44926618 -10.9375 20.75 C-14.51692071 17.71291576 -14.90717575 15.8221576 -15.4375 11.125 C-15.33897037 6.33287732 -13.35822174 4.27826408 -10 1 C-6.79888929 -0.60055535 -3.48117737 -0.35481231 0 0 Z " fill="#3664DB" transform="translate(58,105)"/>
<path d="M0 0 C1.19187833 0.00276538 2.38375666 0.00553076 3.61175251 0.00837994 C4.27585127 0.00581666 4.93995002 0.00325339 5.62417299 0.00061244 C7.85386491 -0.00433683 10.08288265 0.01218544 12.3125124 0.02856731 C13.90899356 0.02941334 15.50547589 0.02893892 17.10195637 0.0272398 C21.44058515 0.02637747 25.77896616 0.04404151 30.11753726 0.06496167 C34.64990824 0.08368901 39.18228461 0.0854758 43.7146883 0.0890379 C52.29947377 0.09836997 60.88414492 0.12299946 69.46888 0.15308636 C79.24141983 0.18659423 89.01396506 0.20310728 98.78654802 0.21817267 C118.8913767 0.24954801 138.99610239 0.30233108 159.10084248 0.36914349 C159.43084248 1.02914349 159.76084248 1.68914349 160.10084248 2.36914349 C77.93084248 2.86414349 77.93084248 2.86414349 -5.89915752 3.36914349 C-2.89915752 0.36914349 -2.89915752 0.36914349 0 0 Z " fill="#4271EE" transform="translate(83.89915752410889,67.63085651397705)"/>
<path d="M0 0 C1.50046875 0.00386719 1.50046875 0.00386719 3.03125 0.0078125 C4.0315625 0.00523437 5.031875 0.00265625 6.0625 0 C8.53125 0.1328125 8.53125 0.1328125 9.53125 1.1328125 C9.79286378 4.0700218 9.94873933 6.93993201 10.03125 9.8828125 C10.08539063 10.69492188 10.13953125 11.50703125 10.1953125 12.34375 C10.32962141 18.23415499 10.32962141 18.23415499 8.03857422 20.81298828 C5.19225338 22.91763582 3.1985753 24.04577007 -0.34375 24.5078125 C-2.46875 24.1328125 -2.46875 24.1328125 -3.46875 23.1328125 C-3.5679157 21.51023706 -3.59954777 19.88341419 -3.6015625 18.2578125 C-3.60285156 17.27296875 -3.60414062 16.288125 -3.60546875 15.2734375 C-3.60160156 14.23703125 -3.59773438 13.200625 -3.59375 12.1328125 C-3.59955078 10.57820312 -3.59955078 10.57820312 -3.60546875 8.9921875 C-3.60417969 8.00734375 -3.60289063 7.0225 -3.6015625 6.0078125 C-3.60043457 5.09773437 -3.59930664 4.18765625 -3.59814453 3.25 C-3.40999054 0.17137466 -3.09543375 0.1665265 0 0 Z " fill="#3361D2" transform="translate(62.46875,169.8671875)"/>
<path d="M0 0 C3.96 0 7.92 0 12 0 C12 7.92 12 15.84 12 24 C7.08956458 24 4.65389118 23.87432372 0.609375 21.3046875 C-3.20624505 15.84057141 -1.62189222 7.3343249 -1 1 C-0.67 0.67 -0.34 0.34 0 0 Z " fill="#335ECB" transform="translate(254,170)"/>
<path d="M0 0 C4.72626177 0.4170231 7.99320851 2.6477777 12 5 C12.02683987 7.97922593 12.04676037 10.95821295 12.0625 13.9375 C12.07087891 14.78763672 12.07925781 15.63777344 12.08789062 16.51367188 C12.09111328 17.32255859 12.09433594 18.13144531 12.09765625 18.96484375 C12.10289307 19.7137085 12.10812988 20.46257324 12.11352539 21.23413086 C12 23 12 23 11 24 C8.98035801 24.07244053 6.95832876 24.08377188 4.9375 24.0625 C3.83277344 24.05347656 2.72804687 24.04445312 1.58984375 24.03515625 C0.30787109 24.01775391 0.30787109 24.01775391 -1 24 C-1.02887236 20.18751574 -1.04675492 16.3750593 -1.0625 12.5625 C-1.07087891 11.47388672 -1.07925781 10.38527344 -1.08789062 9.26367188 C-1.09111328 8.22919922 -1.09433594 7.19472656 -1.09765625 6.12890625 C-1.10289307 5.17056885 -1.10812988 4.21223145 -1.11352539 3.22485352 C-1 1 -1 1 0 0 Z " fill="#2D5BCB" transform="translate(60,130)"/>
<path d="M0 0 C0 7.26 0 14.52 0 22 C-4.24823725 22.84964745 -7.71005077 23.16499805 -12 23 C-14.44477563 20.55522437 -13.54887457 14.15270657 -13.6003418 10.74291992 C-13.46716002 4.67919624 -13.46716002 4.67919624 -11.390625 1.66015625 C-7.01384815 -1.17816709 -5.31871153 -1.06374231 0 0 Z " fill="#325DCB" transform="translate(266,131)"/>
<path d="M0 0 C0.96661363 3.12180401 0.98988909 5.52083795 0.5625 8.75 C0.46066406 9.54921875 0.35882813 10.3484375 0.25390625 11.171875 C0.17011719 11.77515625 0.08632812 12.3784375 0 13 C-1.32 13.33 -2.64 13.66 -4 14 C-4.67801034 16.90073181 -4.67801034 16.90073181 -5 20 C-4.34 20.66 -3.68 21.32 -3 22 C0.29714793 21.67028521 1.6226839 21.3773161 4 19 C4.66 19.33 5.32 19.66 6 20 C4.39936272 24.53513897 2.47411338 29.59800242 -1.875 32.0625 C-4 32 -4 32 -6.453125 30.5078125 C-11.33485351 28.43254025 -15.63523421 28.6740509 -20.875 28.8125 C-21.84953125 28.82603516 -22.8240625 28.83957031 -23.828125 28.85351562 C-26.21932863 28.88868038 -28.60936975 28.9378933 -31 29 C-31 28.67 -31 28.34 -31 28 C-23.41 27.67 -15.82 27.34 -8 27 C-8 26.01 -8 25.02 -8 24 C-8.66 24 -9.32 24 -10 24 C-8.05148112 18.96944887 -5.74020212 14.12987799 -3.4375 9.25390625 C-2.0916949 6.20755938 -0.99624575 3.17553334 0 0 Z " fill="#3A61D0" transform="translate(231,179)"/>
<path d="M0 0 C10.23 0 20.46 0 31 0 C31 0.66 31 1.32 31 2 C26.545 2.495 26.545 2.495 22 3 C24.64 3.33 27.28 3.66 30 4 C30 4.99 30 5.98 30 7 C15.15 6.505 15.15 6.505 0 6 C0 5.34 0 4.68 0 4 C0.99 3.67 1.98 3.34 3 3 C2.01 2.67 1.02 2.34 0 2 C0 1.34 0 0.68 0 0 Z " fill="#4575F0" transform="translate(51,159)"/>
<path d="M0 0 C1.32091644 0.0001133 1.32091644 0.0001133 2.66851807 0.00022888 C3.61031921 0.00539017 4.55212036 0.01055145 5.52246094 0.01586914 C6.97891022 0.01799156 6.97891022 0.01799156 8.46478271 0.02015686 C11.56216529 0.02574876 14.65947525 0.0382998 17.75683594 0.05102539 C19.85839739 0.05604144 21.95995998 0.06060416 24.06152344 0.06469727 C29.20998886 0.07571554 34.35840009 0.09297465 39.50683594 0.11352539 C39.17683594 1.10352539 38.84683594 2.09352539 38.50683594 3.11352539 C22.33683594 3.11352539 6.16683594 3.11352539 -10.49316406 3.11352539 C-7.37009284 -0.00954583 -4.27685523 -0.01228981 0 0 Z " fill="#4475F1" transform="translate(98.4931640625,234.886474609375)"/>
<path d="M0 0 C0.99 0.33 1.98 0.66 3 1 C0.54828926 6.67896264 -4.28432574 10.64216287 -9.75 13.375 C-14.79580023 14.3453462 -19.87621805 14.68494545 -25 15 C-26.08784335 11.68604014 -26.07262544 11.16419665 -24.5625 7.75 C-24.046875 6.8425 -23.53125 5.935 -23 5 C-22.34 5 -21.68 5 -21 5 C-21 4.34 -21 3.68 -21 3 C-19.02 3 -17.04 3 -15 3 C-15.928125 3.309375 -15.928125 3.309375 -16.875 3.625 C-19.84653645 5.54775888 -20.13024659 7.66594527 -21 11 C-11.27012999 9.55159553 -6.08924256 7.82902615 0 0 Z " fill="#4C79F1" transform="translate(259,251)"/>
<path d="M0 0 C1.56562968 4.69688905 0.64063308 9.24842494 0.1875 14.125 C0.10435547 15.15238281 0.02121094 16.17976563 -0.06445312 17.23828125 C-0.15275391 18.21410156 -0.24105469 19.18992188 -0.33203125 20.1953125 C-0.41171143 21.09266113 -0.4913916 21.99000977 -0.57348633 22.91455078 C-0.71423584 23.60274902 -0.85498535 24.29094727 -1 25 C-3.69770258 26.34885129 -5.65273375 26.01578483 -8.6640625 25.87890625 C-9.78554687 25.83056641 -10.90703125 25.78222656 -12.0625 25.73242188 C-13.238125 25.67634766 -14.41375 25.62027344 -15.625 25.5625 C-16.80835937 25.51029297 -17.99171875 25.45808594 -19.2109375 25.40429688 C-22.14087561 25.27433994 -25.07049673 25.13936472 -28 25 C-28 23.02 -28 21.04 -28 19 C-27.67 20.32 -27.34 21.64 -27 23 C-19.41 23 -11.82 23 -4 23 C-4 19.37 -4 15.74 -4 12 C-3.72054949 9.65960196 -3.41255753 7.32063609 -3 5 C-2.34 5 -1.68 5 -1 5 C-0.67 3.35 -0.34 1.7 0 0 Z " fill="#3257B9" transform="translate(119,132)"/>
<path d="M0 0 C0.99 0.33 1.98 0.66 3 1 C3.53574161 4.53957703 4.05091141 8.08185805 4.5625 11.625 C4.71396484 12.62402344 4.86542969 13.62304688 5.02148438 14.65234375 C5.73695379 19.67726846 6.28838724 24.00003363 5 29 C5.99 29 6.98 29 8 29 C7.01 31.475 7.01 31.475 6 34 C8.64 34 11.28 34 14 34 C14 34.33 14 34.66 14 35 C10.37 35 6.74 35 3 35 C3 34.01 3 33.02 3 32 C0.36 32.33 -2.28 32.66 -5 33 C-2.23776722 30.23776722 0.20706617 30.42143709 4 30 C3.69255859 28.7315625 3.69255859 28.7315625 3.37890625 27.4375 C1.16991733 18.13649401 -0.19938847 9.57064635 0 0 Z " fill="#375ABA" transform="translate(115,168)"/>
<path d="M0 0 C0.5775 0.4228125 1.155 0.845625 1.75 1.28125 C3.41140763 1.96091676 5.07700041 2.63063905 6.75 3.28125 C3.53683229 5.78984358 0.18260116 7.9350555 -3.3125 10.03125 C-4.87677734 10.98257813 -4.87677734 10.98257813 -6.47265625 11.953125 C-9.25 13.28125 -9.25 13.28125 -12.25 12.28125 C-9.72211993 9.48252563 -8.04588866 7.82351981 -4.25 7.28125 C-4.25 6.62125 -4.25 5.96125 -4.25 5.28125 C-5.24 5.61125 -6.23 5.94125 -7.25 6.28125 C-7.25 5.62125 -7.25 4.96125 -7.25 4.28125 C-8.19875 4.796875 -9.1475 5.3125 -10.125 5.84375 C-11.15625 6.318125 -12.1875 6.7925 -13.25 7.28125 C-13.91 6.95125 -14.57 6.62125 -15.25 6.28125 C-13.17642695 5.05268793 -11.09403246 3.84899654 -9 2.65625 C-8.12021484 2.1303125 -8.12021484 2.1303125 -7.22265625 1.59375 C-2.79596467 -0.89315538 -2.79596467 -0.89315538 0 0 Z " fill="#3258C0" transform="translate(256.25,121.71875)"/>
<path d="M0 0 C2.375 -0.1875 2.375 -0.1875 5 0 C5.66 0.99 6.32 1.98 7 3 C6.67 3.66 6.34 4.32 6 5 C6.52110352 4.83701416 7.04220703 4.67402832 7.57910156 4.50610352 C10.67363154 3.85917324 13.57253596 3.88847603 16.734375 3.90234375 C18.02988281 3.90556641 19.32539062 3.90878906 20.66015625 3.91210938 C22.02343817 3.92046402 23.38671942 3.92892896 24.75 3.9375 C26.12890465 3.94251832 27.50781104 3.94708065 28.88671875 3.95117188 C32.25785659 3.96295907 35.62890628 3.97941365 39 4 C39 4.99 39 5.98 39 7 C33.76709303 6.88191597 28.53438249 6.75767964 23.30175781 6.62768555 C21.52087397 6.5843167 19.73994802 6.54264306 17.95898438 6.50268555 C15.40221452 6.4450301 12.84565702 6.3813223 10.2890625 6.31640625 C9.49005524 6.29969376 8.69104797 6.28298126 7.86782837 6.26576233 C2.22774341 6.11387171 2.22774341 6.11387171 0 5 C0 3.35 0 1.7 0 0 Z " fill="#4F7DEF" transform="translate(102,225)"/>
<path d="M0 0 C1.04285156 -0.00128906 2.08570313 -0.00257813 3.16015625 -0.00390625 C4.78630859 0.00189453 4.78630859 0.00189453 6.4453125 0.0078125 C7.52167969 0.00394531 8.59804687 0.00007812 9.70703125 -0.00390625 C14.76514152 0.00233063 19.60365781 0.04257123 24.5703125 1.1328125 C24.2403125 1.7928125 23.9103125 2.4528125 23.5703125 3.1328125 C12.6803125 3.1328125 1.7903125 3.1328125 -9.4296875 3.1328125 C-9.4296875 2.4728125 -9.4296875 1.8128125 -9.4296875 1.1328125 C-6.22551385 0.18409069 -3.33564388 0.00397574 0 0 Z " fill="#4374EE" transform="translate(176.4296875,155.8671875)"/>
<path d="M0 0 C0.66 0 1.32 0 2 0 C2 10.23 2 20.46 2 31 C-2.02463026 32.00615756 -5.30232336 32.13319658 -9.4375 32.125 C-10.73558594 32.12757812 -12.03367188 32.13015625 -13.37109375 32.1328125 C-16.40111541 32.02191827 -19.06498638 31.71254666 -22 31 C-22 30.34 -22 29.68 -22 29 C-18.72918529 28.97097571 -15.4584037 28.95319316 -12.1875 28.9375 C-11.25873047 28.92912109 -10.32996094 28.92074219 -9.37304688 28.91210938 C-8.48037109 28.90888672 -7.58769531 28.90566406 -6.66796875 28.90234375 C-5.43469849 28.89448853 -5.43469849 28.89448853 -4.17651367 28.88647461 C-2 29 -2 29 1 30 C0.67 20.1 0.34 10.2 0 0 Z " fill="#3253A6" transform="translate(155,88)"/>
<path d="M0 0 C0.66 0.33 1.32 0.66 2 1 C1.01 1.33 0.02 1.66 -1 2 C-1.103125 2.639375 -1.20625 3.27875 -1.3125 3.9375 C-1.539375 4.618125 -1.76625 5.29875 -2 6 C-2.92167969 6.27328125 -3.84335938 6.5465625 -4.79296875 6.828125 C-8.5724208 8.20916716 -9.67791955 9.58577571 -12 12.8125 C-15.04655593 16.86090413 -17.95679753 19.96759814 -22 23 C-22.73046875 21.26171875 -22.73046875 21.26171875 -23 19 C-17.83476883 11.71855551 -8.01486186 4.00743093 0 0 Z " fill="#2B51B7" transform="translate(122,86)"/>
<path d="M0 0 C13.2 0 26.4 0 40 0 C40.495 1.485 40.495 1.485 41 3 C21.2 2.505 21.2 2.505 1 2 C0.67 1.34 0.34 0.68 0 0 Z " fill="#5A85F0" transform="translate(86,241)"/>
<path d="M0 0 C9.57 0 19.14 0 29 0 C29.33 1.65 29.66 3.3 30 5 C30.20625 5.66 30.4125 6.32 30.625 7 C31.10218864 9.54500607 30.62260447 11.50958213 30 14 C30.99 14.33 31.98 14.66 33 15 C33 17.64 33 20.28 33 23 C27.7265625 26.22265625 27.7265625 26.22265625 26 27 C25.34 26.67 24.68 26.34 24 26 C28.75 23 28.75 23 31 23 C30.7834375 22.24976563 30.566875 21.49953125 30.34375 20.7265625 C30.0653125 19.70304687 29.786875 18.67953125 29.5 17.625 C29.2215625 16.62726563 28.943125 15.62953125 28.65625 14.6015625 C28 11 28 11 28 1 C18.76 1 9.52 1 0 1 C0 0.67 0 0.34 0 0 Z " fill="#29499E" transform="translate(52,165)"/>
<path d="M0 0 C0.33 0 0.66 0 1 0 C1 1.65 1 3.3 1 5 C1.66 5 2.32 5 3 5 C3 6.98 3 8.96 3 11 C-3.27 11 -9.54 11 -16 11 C-16 10.34 -16 9.68 -16 9 C-17.65 9 -19.3 9 -21 9 C-21 8.67 -21 8.34 -21 8 C-14.07 8 -7.14 8 0 8 C-0.33 6.35 -0.66 4.7 -1 3 C-0.67 2.01 -0.34 1.02 0 0 Z " fill="#4269DE" transform="translate(102,255)"/>
<path d="M0 0 C-0.33 0.99 -0.66 1.98 -1 3 C-5.37823917 3.04938149 -9.75633146 3.0857104 -14.13476562 3.10986328 C-15.6247032 3.11993043 -17.11462097 3.13358518 -18.60449219 3.15087891 C-20.74419028 3.17509653 -22.88362753 3.18647564 -25.0234375 3.1953125 C-26.31169434 3.20578613 -27.59995117 3.21625977 -28.92724609 3.22705078 C-32 3 -32 3 -34 1 C-22.66112404 0.39534572 -11.35858317 -0.18966094 0 0 Z " fill="#4677EF" transform="translate(159,156)"/>
<path d="M0 0 C1.60681641 -0.01836914 1.60681641 -0.01836914 3.24609375 -0.03710938 C4.26832031 -0.03904297 5.29054687 -0.04097656 6.34375 -0.04296875 C7.28412109 -0.04707764 8.22449219 -0.05118652 9.19335938 -0.05541992 C11.5 0.1875 11.5 0.1875 13.5 2.1875 C12.5 3.1875 12.5 3.1875 9.99975586 3.30102539 C8.91573486 3.29578857 7.83171387 3.29055176 6.71484375 3.28515625 C5.54501953 3.28193359 4.37519531 3.27871094 3.16992188 3.27539062 C1.32237305 3.26282227 1.32237305 3.26282227 -0.5625 3.25 C-2.41584961 3.24323242 -2.41584961 3.24323242 -4.30664062 3.23632812 C-7.37114117 3.22449608 -10.43554721 3.20801173 -13.5 3.1875 C-13.5 2.5275 -13.5 1.8675 -13.5 1.1875 C-9.49700128 -0.81399936 -4.40083269 0.00264791 0 0 Z " fill="#4778EF" transform="translate(222.5,155.8125)"/>
<path d="M0 0 C0.33 0 0.66 0 1 0 C1 7.92 1 15.84 1 24 C4.96 24 8.92 24 13 24 C13 24.33 13 24.66 13 25 C7.72 25 2.44 25 -3 25 C-2.855625 22.380625 -2.71125 19.76125 -2.5625 17.0625 C-2.51939697 16.2362915 -2.47629395 15.41008301 -2.43188477 14.55883789 C-2.11111111 9.11111111 -2.11111111 9.11111111 -1 8 C-0.76924918 6.65252916 -0.58846937 5.29622435 -0.4375 3.9375 C-0.2209375 1.9884375 -0.2209375 1.9884375 0 0 Z " fill="#2A50B1" transform="translate(168,168)"/>
<path d="M0 0 C5.31027254 1.46032495 9.46330032 3.98320986 14 7 C10.27320751 8.05304512 6.86687856 8 3 8 C2.67 8.33 2.34 8.66 2 9 C3.32 9.33 4.64 9.66 6 10 C5.01 10.495 5.01 10.495 4 11 C1.64018187 10.06421005 -0.69631264 9.06652192 -3 8 C-2.01 7.67 -1.02 7.34 0 7 C-0.33 6.01 -0.66 5.02 -1 4 C-0.34 4 0.32 4 1 4 C0.67 2.68 0.34 1.36 0 0 Z " fill="#2D59C7" transform="translate(244,189)"/>
<path d="M0 0 C3.64581687 -0.02887512 7.29160463 -0.04675585 10.9375 -0.0625 C12.49887695 -0.07506836 12.49887695 -0.07506836 14.09179688 -0.08789062 C15.57583008 -0.09272461 15.57583008 -0.09272461 17.08984375 -0.09765625 C18.46450806 -0.10551147 18.46450806 -0.10551147 19.86694336 -0.11352539 C22 0 22 0 23 1 C23.04080783 2.99958364 23.04254356 5.00045254 23 7 C22.34 5.68 21.68 4.36 21 3 C14.4 3 7.8 3 1 3 C0.67 2.01 0.34 1.02 0 0 Z " fill="#2C52C0" transform="translate(81,253)"/>
<path d="M0 0 C0.66 0 1.32 0 2 0 C2 9.24 2 18.48 2 28 C1.34 27.67 0.68 27.34 0 27 C-0.19622046 22.87536584 -0.38050216 18.75028427 -0.5625 14.625 C-0.61857422 13.449375 -0.67464844 12.27375 -0.73242188 11.0625 C-0.78076172 9.94101563 -0.82910156 8.81953125 -0.87890625 7.6640625 C-0.9260376 6.62717285 -0.97316895 5.5902832 -1.02172852 4.52197266 C-1 2 -1 2 0 0 Z " fill="#4F7AEC" transform="translate(69,213)"/>
<path d="M0 0 C0.99 0.33 1.98 0.66 3 1 C2.67 2.98 2.34 4.96 2 7 C2.99 7 3.98 7 5 7 C4.34 8.65 3.68 10.3 3 12 C5.64 12 8.28 12 11 12 C11 12.33 11 12.66 11 13 C7.37 13 3.74 13 0 13 C0 12.01 0 11.02 0 10 C-2.64 10.33 -5.28 10.66 -8 11 C-5.23776722 8.23776722 -2.79293383 8.42143709 1 8 C0.67 5.36 0.34 2.72 0 0 Z " fill="#3152B3" transform="translate(118,190)"/>
<path d="M0 0 C2.35448675 -0.05454409 4.70767875 -0.0939279 7.0625 -0.125 C9.02896484 -0.15980469 9.02896484 -0.15980469 11.03515625 -0.1953125 C15.00862304 0.00042478 18.21466665 0.83528205 22 2 C24.33215844 2.07403678 26.66860788 2.09515886 29 2 C29 2.99 29 3.98 29 5 C27.4372038 4.85737588 25.87477304 4.71074489 24.3125 4.5625 C23.44238281 4.48128906 22.57226562 4.40007812 21.67578125 4.31640625 C19 4 19 4 16.625 3.5 C13.31690683 2.86988702 10.04695541 2.65727746 6.6875 2.4375 C5.43324219 2.35371094 4.17898437 2.26992187 2.88671875 2.18359375 C1.45779297 2.09271484 1.45779297 2.09271484 0 2 C0 1.34 0 0.68 0 0 Z " fill="#4B79F1" transform="translate(167,193)"/>
<path d="M0 0 C2.475 0.495 2.475 0.495 5 1 C4.01 1.495 4.01 1.495 3 2 C2.34 1.67 1.68 1.34 1 1 C1 10.57 1 20.14 1 30 C5.62 29.67 10.24 29.34 15 29 C8.47925478 32.26037261 8.08615423 32.01076928 0 31 C0 20.77 0 10.54 0 0 Z " fill="#213B8D" transform="translate(168,88)"/>
<path d="M0 0 C0 0.99 0 1.98 0 3 C0.99 3 1.98 3 3 3 C3 3.66 3 4.32 3 5 C2.34 5 1.68 5 1 5 C0.67 5.99 0.34 6.98 0 8 C-1.65 8.33 -3.3 8.66 -5 9 C-5 8.34 -5 7.68 -5 7 C-5.66 7 -6.32 7 -7 7 C-4.60526316 0 -4.60526316 0 0 0 Z " fill="#3F6ADA" transform="translate(76,193)"/>
<path d="M0 0 C0.66 0 1.32 0 2 0 C1.84152588 0.54817383 1.68305176 1.09634766 1.51977539 1.66113281 C0.9372438 4.28238816 0.78793845 6.73872553 0.68359375 9.421875 C0.64169922 10.44667969 0.59980469 11.47148438 0.55664062 12.52734375 C0.49766602 14.12255859 0.49766602 14.12255859 0.4375 15.75 C0.39431641 16.82894531 0.35113281 17.90789062 0.30664062 19.01953125 C0.20071011 21.67956428 0.09863579 24.33968812 0 27 C-0.66 27 -1.32 27 -2 27 C-2.05845196 23.62507371 -2.09374742 20.25027913 -2.125 16.875 C-2.14175781 15.92367187 -2.15851562 14.97234375 -2.17578125 13.9921875 C-2.21104528 8.91416745 -2.03333617 4.75512475 0 0 Z " fill="#4573EE" transform="translate(62,74)"/>
<path d="M0 0 C0.99 0.33 1.98 0.66 3 1 C0.8826576 5.89365361 -2.69120627 8.96788589 -7 12 C-10.5 12.9375 -10.5 12.9375 -13 13 C-13 12.01 -13 11.02 -13 10 C-11.96875 9.649375 -10.9375 9.29875 -9.875 8.9375 C-5.37970945 7.05149215 -2.8653959 3.83102383 0 0 Z " fill="#375DCB" transform="translate(259,251)"/>
<path d="M0 0 C0.66 0.66 1.32 1.32 2 2 C1.44444444 6.55555556 1.44444444 6.55555556 0 8 C-2.86267567 8.07325168 -5.700719 8.09238205 -8.5625 8.0625 C-9.36880859 8.05798828 -10.17511719 8.05347656 -11.00585938 8.04882812 C-13.00393756 8.03700518 -15.00197783 8.01906914 -17 8 C-17.309375 8.61875 -17.61875 9.2375 -17.9375 9.875 C-18.625 11.25 -19.3125 12.625 -20 14 C-20.66 14 -21.32 14 -22 14 C-22 13.01 -22 12.02 -22 11 C-21.34 11 -20.68 11 -20 11 C-19.67 9.35 -19.34 7.7 -19 6 C-13.39 6.33 -7.78 6.66 -2 7 C-1.34 4.69 -0.68 2.38 0 0 Z " fill="#264AAF" transform="translate(237,268)"/>
<path d="M0 0 C1.9375 0.8125 1.9375 0.8125 4 2 C5.1577506 5.47325181 5.06866652 8.36067448 5 12 C4.02417969 12.04898437 3.04835938 12.09796875 2.04296875 12.1484375 C0.77066406 12.22320312 -0.50164062 12.29796875 -1.8125 12.375 C-3.70935547 12.47941406 -3.70935547 12.47941406 -5.64453125 12.5859375 C-9.12755234 12.76102939 -9.12755234 12.76102939 -12 15 C-11.4140625 13.046875 -11.4140625 13.046875 -10 11 C-6.9609375 10.390625 -6.9609375 10.390625 -3.375 10.25 C-2.18648437 10.19328125 -0.99796875 10.1365625 0.2265625 10.078125 C1.59941406 10.03945313 1.59941406 10.03945313 3 10 C2.505 9.0925 2.01 8.185 1.5 7.25 C0 4 0 4 0 0 Z " fill="#274390" transform="translate(106,256)"/>
<path d="M0 0 C1.98 0 3.96 0 6 0 C4.68 0.33 3.36 0.66 2 1 C1.01 7.6 0.02 14.2 -1 21 C-1.33 21 -1.66 21 -2 21 C-2.91657981 15.61509359 -3.11138159 10.45769811 -3 5 C-2.01 4.67 -1.02 4.34 0 4 C0 2.68 0 1.36 0 0 Z " fill="#335ABF" transform="translate(129,127)"/>
<path d="M0 0 C0.99 0 1.98 0 3 0 C3.33 0.99 3.66 1.98 4 3 C3.01 3 2.02 3 1 3 C1.33 9.27 1.66 15.54 2 22 C1.01 22 0.02 22 -1 22 C-1.02887814 18.52085059 -1.04675687 15.04173169 -1.0625 11.5625 C-1.07087891 10.56927734 -1.07925781 9.57605469 -1.08789062 8.55273438 C-1.09111328 7.60849609 -1.09433594 6.66425781 -1.09765625 5.69140625 C-1.10289307 4.81685791 -1.10812988 3.94230957 -1.11352539 3.04125977 C-1 1 -1 1 0 0 Z " fill="#4473EC" transform="translate(61,131)"/>
<path d="M0 0 C1.39456452 0.00667256 2.78911118 0.01863093 4.18359375 0.03515625 C4.89451172 0.03966797 5.60542969 0.04417969 6.33789062 0.04882812 C8.09899388 0.06064761 9.86005411 0.07858362 11.62109375 0.09765625 C11.29109375 1.08765625 10.96109375 2.07765625 10.62109375 3.09765625 C4.35109375 3.09765625 -1.91890625 3.09765625 -8.37890625 3.09765625 C-7.05890625 2.43765625 -5.73890625 1.77765625 -4.37890625 1.09765625 C-3.37890625 0.09765625 -3.37890625 0.09765625 0 0 Z " fill="#4271EB" transform="translate(181.37890625,254.90234375)"/>
<path d="M0 0 C-0.33 1.32 -0.66 2.64 -1 4 C-1.66 3.67 -2.32 3.34 -3 3 C-4.81171098 2.84693099 -6.6283794 2.75053339 -8.4453125 2.68359375 C-9.52167969 2.64169922 -10.59804687 2.59980469 -11.70703125 2.55664062 C-13.39892578 2.49766602 -13.39892578 2.49766602 -15.125 2.4375 C-16.26066406 2.39431641 -17.39632812 2.35113281 -18.56640625 2.30664062 C-21.37747768 2.2003396 -24.18863945 2.09830595 -27 2 C-27 1.67 -27 1.34 -27 1 C-18.02243049 -0.3300103 -9.05168034 -0.08788039 0 0 Z " fill="#537FF2" transform="translate(236,165)"/>
<path d="M0 0 C8.91 0 17.82 0 27 0 C27 0.33 27 0.66 27 1 C24.36 1.33 21.72 1.66 19 2 C19 2.33 19 2.66 19 3 C15.04 3 11.08 3 7 3 C7 2.67 7 2.34 7 2 C4.69 1.67 2.38 1.34 0 1 C0 0.67 0 0.34 0 0 Z " fill="#2A46AC" transform="translate(149,76)"/>
<path d="M0 0 C0.33 0.66 0.66 1.32 1 2 C-5.93 2 -12.86 2 -20 2 C-20.33 1.34 -20.66 0.68 -21 0 C-14.31012285 -1.1634569 -6.54350771 -2.29240403 0 0 Z " fill="#3976F1" transform="translate(228,237)"/>
<path d="M0 0 C1.98 0.495 1.98 0.495 4 1 C3.34 1 2.68 1 2 1 C2 7.6 2 14.2 2 21 C1.34 21 0.68 21 0 21 C-0.19461488 18.06281233 -0.38097593 15.12550068 -0.5625 12.1875 C-0.61857422 11.35412109 -0.67464844 10.52074219 -0.73242188 9.66210938 C-0.78076172 8.85966797 -0.82910156 8.05722656 -0.87890625 7.23046875 C-0.9260376 6.49207764 -0.97316895 5.75368652 -1.02172852 4.99291992 C-1 3 -1 3 0 0 Z " fill="#4470EC" transform="translate(60,223)"/>
<path d="M0 0 C0 0.99 0 1.98 0 3 C-0.83772949 2.98952637 -1.67545898 2.97905273 -2.53857422 2.96826172 C-5.64338164 2.93419981 -8.74809392 2.90911089 -11.85302734 2.89013672 C-13.8591136 2.87511893 -15.86511324 2.84971019 -17.87109375 2.82421875 C-19.75634766 2.81455078 -19.75634766 2.81455078 -21.6796875 2.8046875 C-22.84226074 2.79421387 -24.00483398 2.78374023 -25.20263672 2.77294922 C-28.13910279 2.70738003 -28.13910279 2.70738003 -30 5 C-30.33 4.01 -30.66 3.02 -31 2 C-29.43046246 0.43046246 -27.80477653 0.78136567 -25.625 0.68359375 C-24.26955078 0.62075195 -24.26955078 0.62075195 -22.88671875 0.55664062 C-21.93410156 0.51732422 -20.98148438 0.47800781 -20 0.4375 C-19.07832031 0.39431641 -18.15664062 0.35113281 -17.20703125 0.30664062 C-11.46557087 0.05155459 -5.74688117 -0.04121739 0 0 Z " fill="#4676ED" transform="translate(274,163)"/>
<path d="M0 0 C0.66 0 1.32 0 2 0 C2 6.93 2 13.86 2 21 C0.68 20.67 -0.64 20.34 -2 20 C-1.34 19.67 -0.68 19.34 0 19 C0 12.73 0 6.46 0 0 Z " fill="#4F7BEF" transform="translate(263,172)"/>
<path d="M0 0 C0.495 0.639375 0.99 1.27875 1.5 1.9375 C-1.14 1.9375 -3.78 1.9375 -6.5 1.9375 C-6.5 1.2775 -6.5 0.6175 -6.5 -0.0625 C-10.61752209 -0.38544291 -12.81762466 -0.51741689 -16.3125 1.8125 C-17.71788731 3.17773339 -19.11454417 4.55204417 -20.5 5.9375 C-20.16902062 2.84835915 -19.49715301 1.9348069 -17.1875 -0.25 C-11.77202894 -3.90229444 -5.20402369 -4.29331954 0 0 Z " fill="#163183" transform="translate(48.5,152.0625)"/>
<path d="M0 0 C9.41002278 0.96355353 9.41002278 0.96355353 14 2 C12.46218054 5.07563891 10.08755777 5.70322574 7 7 C6.01 6.67 5.02 6.34 4 6 C4.66 6 5.32 6 6 6 C6 5.34 6 4.68 6 4 C5.01 4 4.02 4 3 4 C3 3.01 3 2.02 3 1 C1.68 1.33 0.36 1.66 -1 2 C-0.67 1.34 -0.34 0.68 0 0 Z " fill="#395DC1" transform="translate(73,192)"/>
<path d="M0 0 C0.99 0 1.98 0 3 0 C3 6.93 3 13.86 3 21 C2.34 21 1.68 21 1 21 C0.67 14.07 0.34 7.14 0 0 Z " fill="#4F7AED" transform="translate(262,131)"/>
<path d="M0 0 C1.32 0.33 2.64 0.66 4 1 C3.67 1.99 3.34 2.98 3 4 C3.64949225 6.33817209 4.31744011 8.67126625 5 11 C5.125 13.9375 5.125 13.9375 5 16 C0.65784638 11.65784638 0.23046403 7.86530953 0 2 C0 1.34 0 0.68 0 0 Z " fill="#3A5DCA" transform="translate(240,134)"/>
<path d="M0 0 C-2.52480693 2.52480693 -4.13823034 2.55738633 -7.625 3.125 C-8.62789062 3.29257813 -9.63078125 3.46015625 -10.6640625 3.6328125 C-11.43492187 3.75398437 -12.20578125 3.87515625 -13 4 C-13 3.34 -13 2.68 -13 2 C-15.31 2 -17.62 2 -20 2 C-20 1.67 -20 1.34 -20 1 C-13.30324864 -0.03026944 -6.7685324 -0.10152799 0 0 Z " fill="#2E4CA4" transform="translate(156,192)"/>
<path d="M0 0 C0.96661363 3.12180401 0.98988909 5.52083795 0.5625 8.75 C0.46066406 9.54921875 0.35882813 10.3484375 0.25390625 11.171875 C0.17011719 11.77515625 0.08632812 12.3784375 0 13 C-0.63679687 13.103125 -1.27359375 13.20625 -1.9296875 13.3125 C-2.61289063 13.539375 -3.29609375 13.76625 -4 14 C-5.15835673 16.97503122 -5.15835673 16.97503122 -6 20 C-6.66 20.33 -7.32 20.66 -8 21 C-6.66426223 16.84368109 -5.14344934 12.83039263 -3.4375 8.8125 C-2.19662438 5.88521182 -1.00555087 3.01665262 0 0 Z " fill="#22418B" transform="translate(231,179)"/>
<path d="M0 0 C0.66 0 1.32 0 2 0 C1.67 1.65 1.34 3.3 1 5 C-3.96073422 6.32286246 -8.91111512 6.08893197 -14 6 C-10.86730295 2.86730295 -8.02671577 2.94505603 -3.75 2.9375 C-1.89375 2.9684375 -1.89375 2.9684375 0 3 C0 2.01 0 1.02 0 0 Z " fill="#5783EF" transform="translate(191,114)"/>
<path d="M0 0 C1.6594907 3.3189814 0.01808761 6.60853618 -1 10 C-1.63028587 11.68076231 -2.28050817 13.35544725 -3 15 C-4.98 14.34 -6.96 13.68 -9 13 C-7.68 12.67 -6.36 12.34 -5 12 C-4.9175 11.319375 -4.835 10.63875 -4.75 9.9375 C-3.77667472 6.1253093 -2.04192545 3.35929671 0 0 Z " fill="#27499C" transform="translate(129,100)"/>
<path d="M0 0 C1.19088986 5.38027025 2.2919519 10.45291384 2 16 C-1.32957948 13.40019136 -1.61761712 10.88935445 -2.1875 6.8125 C-2.34605469 5.72582031 -2.50460938 4.63914063 -2.66796875 3.51953125 C-2.77753906 2.68808594 -2.88710937 1.85664063 -3 1 C-1 0 -1 0 0 0 Z " fill="#395EC5" transform="translate(93,171)"/>
<path d="M0 0 C0.66 0.33 1.32 0.66 2 1 C2.05391993 2.79133978 2.09275571 4.58313899 2.125 6.375 C2.14820313 7.37273437 2.17140625 8.37046875 2.1953125 9.3984375 C2 12 2 12 0 14 C-1.78409802 10.93753253 -2.22880021 8.77920727 -2.125 5.25 C-2.10695313 4.45078125 -2.08890625 3.6515625 -2.0703125 2.828125 C-2.04710938 2.22484375 -2.02390625 1.6215625 -2 1 C-1.34 0.67 -0.68 0.34 0 0 Z " fill="#3159BA" transform="translate(29,157)"/>
<path d="M0 0 C0.77772405 2.33317216 1.42415568 4.61435923 2 7 C4.64 7.33 7.28 7.66 10 8 C10 8.33 10 8.66 10 9 C4.06 9.495 4.06 9.495 -2 10 C-3.19156292 5.23374833 -2.3415946 4.12120649 0 0 Z " fill="#2F4EA9" transform="translate(236,256)"/>
<path d="M0 0 C1.7421875 1.52734375 1.7421875 1.52734375 3 3 C2.39671875 2.98839844 1.7934375 2.97679688 1.171875 2.96484375 C0.37265625 2.95582031 -0.4265625 2.94679688 -1.25 2.9375 C-2.03890625 2.92589844 -2.8278125 2.91429688 -3.640625 2.90234375 C-6.97647693 3.04041709 -9.22821502 3.31090627 -11.75 5.5625 C-12.1625 6.036875 -12.575 6.51125 -13 7 C-13 4 -13 4 -11 1.8125 C-6.89389782 -0.66827007 -4.74999478 -0.53628973 0 0 Z " fill="#1B3899" transform="translate(275,105)"/>
<path d="M0 0 C2.84584002 2.48098874 4.74703376 4.27272207 6 7.875 C6 11.97079746 4.8238171 14.35236581 3 18 C2.34 16.68 1.68 15.36 1 14 C1.66 14 2.32 14 3 14 C2.67 13.01 2.34 12.02 2 11 C2.66 10.01 3.32 9.02 4 8 C3.01 6.576875 3.01 6.576875 2 5.125 C0 2 0 2 0 0 Z " fill="#254798" transform="translate(235,228)"/>
<path d="M0 0 C0.99 0.33 1.98 0.66 3 1 C3.45375 1.928125 3.9075 2.85625 4.375 3.8125 C6.13241997 7.25974687 7.86937456 8.80010104 11 11 C2.82894737 9.18421053 2.82894737 9.18421053 0.6875 6.125 C0 4 0 4 0 0 Z " fill="#3357BB" transform="translate(70,241)"/>
<path d="M0 0 C0.33 0.99 0.66 1.98 1 3 C3.00016466 4.20882096 3.00016466 4.20882096 5 5 C5 5.66 5 6.32 5 7 C1.37 6.34 -2.26 5.68 -6 5 C-6 4.34 -6 3.68 -6 3 C-4.02 2.01 -2.04 1.02 0 0 Z " fill="#4B7CF3" transform="translate(84,188)"/>
<path d="M0 0 C0.99 0.33 1.98 0.66 3 1 C3.1875 4.375 3.1875 4.375 3 8 C2.01 8.66 1.02 9.32 0 10 C-1.32 9.34 -2.64 8.68 -4 8 C-3.01 7.34 -2.02 6.68 -1 6 C-0.26656572 2.93443402 -0.26656572 2.93443402 0 0 Z " fill="#2D54B9" transform="translate(260,112)"/>
<path d="M0 0 C6.53290083 0.6163114 6.53290083 0.6163114 8.75 2.4375 C9.36875 3.2109375 9.36875 3.2109375 10 4 C10.99 4.66 11.98 5.32 13 6 C13.66 6.66 14.32 7.32 15 8 C14.67 8.66 14.34 9.32 14 10 C10.67312232 8.45315734 7.75296022 6.54045021 4.75 4.4375 C3.85796875 3.81746094 2.9659375 3.19742188 2.046875 2.55859375 C1.37140625 2.04425781 0.6959375 1.52992187 0 1 C0 0.67 0 0.34 0 0 Z " fill="#3154BA" transform="translate(196,96)"/>
<path d="M0 0 C0.33 0 0.66 0 1 0 C1.24794402 6.5705166 0.32388229 12.56971459 -1 19 C-1.33 19 -1.66 19 -2 19 C-2.19466332 17.20909747 -2.38051213 15.41723495 -2.5625 13.625 C-2.66691406 12.62726563 -2.77132812 11.62953125 -2.87890625 10.6015625 C-3 8 -3 8 -2 6 C-1.34 6 -0.68 6 0 6 C0 4.02 0 2.04 0 0 Z " fill="#2C53B5" transform="translate(192,229)"/>
<path d="M0 0 C0 0.66 0 1.32 0 2 C-3.17410816 3.88095298 -5.3509193 4.09356617 -9 4 C-9.99 4.33 -10.98 4.66 -12 5 C-11 2 -11 2 -8.25 0.25 C-4.82103483 -1.06883276 -3.42681118 -1.10867421 0 0 Z " fill="#396DF1" transform="translate(252,127)"/>
<path d="M0 0 C0.66 0.33 1.32 0.66 2 1 C1.01 1.33 0.02 1.66 -1 2 C-1.1546875 2.9590625 -1.1546875 2.9590625 -1.3125 3.9375 C-1.539375 4.618125 -1.76625 5.29875 -2 6 C-4.8125 7.125 -4.8125 7.125 -8 8 C-9.34721283 8.63815344 -10.68747118 9.29325371 -12 10 C-8.87562143 5.44361459 -5.02279976 2.2830908 0 0 Z " fill="#1E3A96" transform="translate(122,86)"/>
<path d="M0 0 C0.33 0.66 0.66 1.32 1 2 C0.67 2.66 0.34 3.32 0 4 C-4.54093172 5.41904116 -9.2943099 5.09226843 -14 5 C-10.98509443 2.99006295 -8.7850073 2.27376659 -5.3125 1.375 C-3.82169922 0.98441406 -3.82169922 0.98441406 -2.30078125 0.5859375 C-1.54152344 0.39257812 -0.78226563 0.19921875 0 0 Z " fill="#4F7CF2" transform="translate(223,202)"/>
<path d="M0 0 C1.03125 0.00322266 2.0625 0.00644531 3.125 0.00976562 C4.74535156 0.02233398 4.74535156 0.02233398 6.3984375 0.03515625 C8.03039062 0.04192383 8.03039062 0.04192383 9.6953125 0.04882812 C12.38807539 0.06063849 15.08072938 0.07710847 17.7734375 0.09765625 C17.7734375 0.42765625 17.7734375 0.75765625 17.7734375 1.09765625 C10.8434375 1.09765625 3.9134375 1.09765625 -3.2265625 1.09765625 C-3.2265625 1.75765625 -3.2265625 2.41765625 -3.2265625 3.09765625 C-4.5465625 3.09765625 -5.8665625 3.09765625 -7.2265625 3.09765625 C-7.2265625 2.43765625 -7.2265625 1.77765625 -7.2265625 1.09765625 C-4.66933021 -0.1809599 -2.85919148 -0.01570984 0 0 Z " fill="#3E6FEF" transform="translate(216.2265625,155.90234375)"/>
<path d="M0 0 C1.0635083 3.36644357 1.00078718 6.18522983 0.6875 9.6875 C0.60886719 10.66074219 0.53023437 11.63398437 0.44921875 12.63671875 C0.30097656 13.41660156 0.15273437 14.19648437 0 15 C-0.99 15.495 -0.99 15.495 -2 16 C-2.05402274 13.89611431 -2.09280256 11.79183286 -2.125 9.6875 C-2.14820313 8.51574219 -2.17140625 7.34398438 -2.1953125 6.13671875 C-2 3 -2 3 0 0 Z " fill="#4575F0" transform="translate(159,92)"/>
<path d="M0 0 C3.875 4.75 3.875 4.75 5 7 C5.99 7.66 6.98 8.32 8 9 C6.35 9.33 4.7 9.66 3 10 C-1.06153846 4.58461538 -1.06153846 4.58461538 -0.75 1.625 C-0.5025 1.08875 -0.255 0.5525 0 0 Z " fill="#2B4CAF" transform="translate(99,194)"/>
<path d="M0 0 C0.78761719 0.17144531 1.57523437 0.34289062 2.38671875 0.51953125 C4.3125 1.1875 4.3125 1.1875 5.3125 3.1875 C4.42046875 3.10371094 3.5284375 3.01992187 2.609375 2.93359375 C1.43890625 2.83175781 0.2684375 2.72992188 -0.9375 2.625 C-2.09765625 2.52058594 -3.2578125 2.41617188 -4.453125 2.30859375 C-7.20621477 2.20551913 -9.107482 2.32536527 -11.6875 3.1875 C-8.17171622 -0.85565134 -5.10087987 -1.17193769 0 0 Z " fill="#132B82" transform="translate(288.6875,149.8125)"/>
<path d="M0 0 C0.33 1.65 0.66 3.3 1 5 C0.01 5 -0.98 5 -2 5 C-2 4.34 -2 3.68 -2 3 C-4.31 2.67 -6.62 2.34 -9 2 C-9 1.34 -9 0.68 -9 0 C-5.62182575 -0.84454356 -3.32534757 -1.10844919 0 0 Z " fill="#4B7AEF" transform="translate(69,122)"/>
<path d="M0 0 C0.99 0 1.98 0 3 0 C1.48328036 4.55015893 -2.16891053 6.50057264 -6 9 C-6.33 8.01 -6.66 7.02 -7 6 C-5.35 4.68 -3.7 3.36 -2 2 C-1.34 2.33 -0.68 2.66 0 3 C0 2.01 0 1.02 0 0 Z " fill="#385EC1" transform="translate(152,87)"/>
<path d="M0 0 C-0.33 1.32 -0.66 2.64 -1 4 C-2.98 4.33 -4.96 4.66 -7 5 C-7.33 3.68 -7.66 2.36 -8 1 C-5.07175348 0.02391783 -3.04386724 -0.08226668 0 0 Z " fill="#5686E8" transform="translate(118,200)"/>
<path d="M0 0 C0 0.66 0 1.32 0 2 C-2.75078884 2.91692961 -4.35948913 3.10886083 -7.1875 3.0625 C-9.0746875 3.0315625 -9.0746875 3.0315625 -11 3 C-11 2.34 -11 1.68 -11 1 C-7.32589215 -0.17571451 -3.83070817 -0.07366746 0 0 Z " fill="#4E7AEF" transform="translate(143,194)"/>
<path d="M0 0 C3.99500618 1.3697164 6.80009492 3.25722422 10 6 C2.25 5.25 2.25 5.25 0 3 C0 2.01 0 1.02 0 0 Z " fill="#2749A5" transform="translate(248,191)"/>
<path d="M0 0 C2.10827055 3.16240582 2.33817465 4.50657469 2.625 8.1875 C2.69976562 9.08855469 2.77453125 9.98960937 2.8515625 10.91796875 C2.90054688 11.60503906 2.94953125 12.29210937 3 13 C2.01 13.495 2.01 13.495 1 14 C0.06380187 10.84493858 -0.1057123 8.03413498 -0.0625 4.75 C-0.05347656 3.85796875 -0.04445312 2.9659375 -0.03515625 2.046875 C-0.02355469 1.37140625 -0.01195312 0.6959375 0 0 Z " fill="#4A75EC" transform="translate(233,140)"/>
<path d="M0 0 C4.51617599 -0.07654536 8.59085217 -0.10228696 13 1 C13 1.99 13 2.98 13 4 C8.51474352 3.343621 4.33085971 2.29925791 0 1 C0 0.67 0 0.34 0 0 Z " fill="#4977EF" transform="translate(112,112)"/>
<path d="M0 0 C0 3 0 3 -0.9375 5.1875 C-3.88766809 7.78007196 -6.3336026 7.31046113 -10.13671875 7.140625 C-10.75160156 7.09421875 -11.36648437 7.0478125 -12 7 C-12 6.67 -12 6.34 -12 6 C-11.07767578 5.72736328 -11.07767578 5.72736328 -10.13671875 5.44921875 C-8.92435547 5.07216797 -8.92435547 5.07216797 -7.6875 4.6875 C-6.48673828 4.32205078 -6.48673828 4.32205078 -5.26171875 3.94921875 C-2.90035427 2.95817977 -1.66120007 1.91925057 0 0 Z " fill="#193580" transform="translate(251,246)"/>
<path d="M0 0 C0 0.99 0 1.98 0 3 C0.99 3 1.98 3 3 3 C3 3.66 3 4.32 3 5 C2.0925 4.773125 1.185 4.54625 0.25 4.3125 C-2.99503501 3.67394455 -2.99503501 3.67394455 -5.375 5.4375 C-5.91125 5.953125 -6.4475 6.46875 -7 7 C-4.60526316 0 -4.60526316 0 0 0 Z " fill="#4677F3" transform="translate(76,193)"/>
<path d="M0 0 C4.29 0 8.58 0 13 0 C12.67 0.99 12.34 1.98 12 3 C12 2.34 12 1.68 12 1 C8.7 1 5.4 1 2 1 C2 2.65 2 4.3 2 6 C1.67 5.01 1.34 4.02 1 3 C0.34 3 -0.32 3 -1 3 C-0.67 2.01 -0.34 1.02 0 0 Z " fill="#2D4AB2" transform="translate(206,221)"/>
<path d="M0 0 C1.43739513 -0.02712066 2.87493863 -0.04645067 4.3125 -0.0625 C5.51326172 -0.07990234 5.51326172 -0.07990234 6.73828125 -0.09765625 C9 0 9 0 12 1 C12 1.66 12 2.32 12 3 C10.18674449 2.88648483 8.37436643 2.75887039 6.5625 2.625 C5.04849609 2.52058594 5.04849609 2.52058594 3.50390625 2.4140625 C2.67761719 2.27742188 1.85132813 2.14078125 1 2 C0.67 1.34 0.34 0.68 0 0 Z " fill="#436FF0" transform="translate(167,77)"/>
<path d="M0 0 C3.95820859 0.56545837 6.6659053 1.80902348 10 4 C8.375 4.75 8.375 4.75 6 5 C2.75 3.125 2.75 3.125 0 1 C0 0.67 0 0.34 0 0 Z " fill="#2D66F0" transform="translate(71,126)"/>
<path d="M0 0 C1.8871875 0.0309375 1.8871875 0.0309375 3.8125 0.0625 C3.4825 0.7225 3.1525 1.3825 2.8125 2.0625 C0.52734375 2.4765625 0.52734375 2.4765625 -2.25 2.6875 C-3.16910156 2.76226562 -4.08820313 2.83703125 -5.03515625 2.9140625 C-5.74542969 2.96304688 -6.45570313 3.01203125 -7.1875 3.0625 C-7.1875 2.4025 -7.1875 1.7425 -7.1875 1.0625 C-4.43671116 0.14557039 -2.82801087 -0.04636083 0 0 Z " fill="#426EF2" transform="translate(153.1875,76.9375)"/>
<path d="M0 0 C0.99 0.33 1.98 0.66 3 1 C1.60667426 4.36720387 0.0210714 5.9859524 -3 8 C-2.45276317 4.62537285 -1.9451 2.91765 0 0 Z " fill="#3659BE" transform="translate(259,251)"/>
<path d="M0 0 C2.97 0.33 5.94 0.66 9 1 C8.01 2.485 8.01 2.485 7 4 C5.68 4 4.36 4 3 4 C3 3.01 3 2.02 3 1 C1.68 1.33 0.36 1.66 -1 2 C-0.67 1.34 -0.34 0.68 0 0 Z " fill="#335FD1" transform="translate(73,192)"/>
<path d="M0 0 C0.66 0.33 1.32 0.66 2 1 C0.8141763 4.37503669 -0.27573689 6.64722731 -3 9 C-3.36923077 3.46153846 -3.36923077 3.46153846 -1.5 1.125 C-1.005 0.75375 -0.51 0.3825 0 0 Z " fill="#3558BC" transform="translate(143,96)"/>
<path d="M0 0 C2.75 0.25 2.75 0.25 5 1 C2.38485683 3.12038635 -0.19637616 5.13091744 -3 7 C-3.33 6.01 -3.66 5.02 -4 4 C-2.3125 1.9375 -2.3125 1.9375 0 0 Z " fill="#2F56C5" transform="translate(77,70)"/>
<path d="M0 0 C1.32 0.66 2.64 1.32 4 2 C4 2.66 4 3.32 4 4 C6.97 4.495 6.97 4.495 10 5 C8.375 5.6875 8.375 5.6875 6 6 C2.75 4.5625 2.75 4.5625 0 3 C0 2.01 0 1.02 0 0 Z " fill="#2E50B3" transform="translate(46,214)"/>
<path d="M0 0 C2 4 2 4 2 8 C3.65 8 5.3 8 7 8 C5.68 8.33 4.36 8.66 3 9 C3 9.66 3 10.32 3 11 C2.01 10.67 1.02 10.34 0 10 C0 6.7 0 3.4 0 0 Z " fill="#2E4BA2" transform="translate(129,186)"/>
<path d="M0 0 C0.33 0 0.66 0 1 0 C1.33 3.63 1.66 7.26 2 11 C1.01 11 0.02 11 -1 11 C-1.33 8.69 -1.66 6.38 -2 4 C-1.34 4 -0.68 4 0 4 C0 2.68 0 1.36 0 0 Z " fill="#3252BC" transform="translate(127,175)"/>
<path d="M0 0 C1.5 1 1.5 1 3 3 C3.27345479 5.71846235 3.13491285 8.25677199 3 11 C2.67 9.68 2.34 8.36 2 7 C1.34 7 0.68 7 0 7 C0 4.69 0 2.38 0 0 Z " fill="#4778F2" transform="translate(242,147)"/>
<path d="M0 0 C4.54805635 -0.17835515 7.8794254 0.00214565 12 2 C12 2.33 12 2.66 12 3 C10.56344146 3.08131463 9.1255517 3.13933559 7.6875 3.1875 C6.48673828 3.23970703 6.48673828 3.23970703 5.26171875 3.29296875 C2.52148416 2.93801608 1.70828921 2.10633718 0 0 Z " fill="#2E54BB" transform="translate(263,124)"/>
<path d="M0 0 C5.39449293 -0.27429625 8.51925805 -0.36055646 13 3 C10.09905209 4.45047396 8.44027404 3.45356803 5.375 2.5625 C4.37210938 2.27503906 3.36921875 1.98757812 2.3359375 1.69140625 C1.56507812 1.46324219 0.79421875 1.23507813 0 1 C0 0.67 0 0.34 0 0 Z " fill="#153387" transform="translate(50,105)"/>
<path d="M0 0 C1.32 0.66 2.64 1.32 4 2 C1.69 3.65 -0.62 5.3 -3 7 C-3.33 6.01 -3.66 5.02 -4 4 C-2.68 2.68 -1.36 1.36 0 0 Z " fill="#355BC5" transform="translate(118,100)"/>
<path d="M0 0 C4.40114397 0.50298788 6.71195019 2.08772731 10 5 C4.25 5.125 4.25 5.125 2 4 C2 3.01 2 2.02 2 1 C1.34 0.67 0.68 0.34 0 0 Z " fill="#244399" transform="translate(197,84)"/>
<path d="M0 0 C1.32 0.66 2.64 1.32 4 2 C3.34 2 2.68 2 2 2 C1.5359375 2.928125 1.5359375 2.928125 1.0625 3.875 C0.375 5.25 -0.3125 6.625 -1 8 C-1.66 8 -2.32 8 -3 8 C-3 7.01 -3 6.02 -3 5 C-2.34 5 -1.68 5 -1 5 C-0.67 3.35 -0.34 1.7 0 0 Z " fill="#2951CC" transform="translate(218,274)"/>
<path d="M0 0 C2.31 0.33 4.62 0.66 7 1 C6.67 3.97 6.34 6.94 6 10 C5.67 10 5.34 10 5 10 C5 7.69 5 5.38 5 3 C2.525 2.01 2.525 2.01 0 1 C0 0.67 0 0.34 0 0 Z " fill="#2B479A" transform="translate(255,203)"/>
<path d="M0 0 C-0.7734375 0.3403125 -0.7734375 0.3403125 -1.5625 0.6875 C-4.92403127 2.4975553 -7.92911144 4.73996404 -11 7 C-10.8125 4.625 -10.8125 4.625 -10 2 C-6.65842753 0.05074939 -3.81884554 -0.21821974 0 0 Z " fill="#2A59E5" transform="translate(286,151)"/>
<path d="M0 0 C-0.6875 1.9375 -0.6875 1.9375 -2 4 C-4.625 4.75 -4.625 4.75 -7 5 C-5.22678182 1.07358831 -4.52021524 0 0 0 Z " fill="#3D61CD" transform="translate(251,130)"/>
<path d="M0 0 C0.99 0.33 1.98 0.66 3 1 C1.68 3.31 0.36 5.62 -1 8 C-1.66 6.68 -2.32 5.36 -3 4 C-2.01 2.68 -1.02 1.36 0 0 Z " fill="#2C52BF" transform="translate(101,120)"/>
<path d="M0 0 C-0.33 0.99 -0.66 1.98 -1 3 C-1.33 2.34 -1.66 1.68 -2 1 C-4.64 1.33 -7.28 1.66 -10 2 C-9.67 1.01 -9.34 0.02 -9 -1 C-5.23375329 -2.25541557 -3.62811066 -1.37061958 0 0 Z " fill="#3154B8" transform="translate(223,120)"/>
<path d="M0 0 C-0.33 0.99 -0.66 1.98 -1 3 C-4.96 3 -8.92 3 -13 3 C-13 2.67 -13 2.34 -13 2 C-11.20873548 1.66451233 -9.41697413 1.33167645 -7.625 1 C-6.62726563 0.814375 -5.62953125 0.62875 -4.6015625 0.4375 C-2 0 -2 0 0 0 Z " fill="#4A79F1" transform="translate(159,118)"/>
<path d="M0 0 C4.21912747 0.4794463 6.79663178 1.16625119 10 4 C8.35 4.33 6.7 4.66 5 5 C5 4.01 5 3.02 5 2 C3.35 2 1.7 2 0 2 C0 1.34 0 0.68 0 0 Z " fill="#213E99" transform="translate(187,80)"/>
<path d="M0 0 C0.66 0 1.32 0 2 0 C1.67 0.70125 1.34 1.4025 1 2.125 C-0.09044562 5.26003116 -0.15322643 7.70563182 0 11 C-0.66 11 -1.32 11 -2 11 C-2.05399736 9.54207116 -2.09279177 8.08357288 -2.125 6.625 C-2.15980469 5.40683594 -2.15980469 5.40683594 -2.1953125 4.1640625 C-2 2 -2 2 0 0 Z " fill="#3F72EC" transform="translate(47,201)"/>
<path d="M0 0 C0.33 0.66 0.66 1.32 1 2 C2.99760305 2.34740923 4.99787771 2.67966043 7 3 C7.99 3.66 8.98 4.32 10 5 C8.02 5.33 6.04 5.66 4 6 C3.67 5.01 3.34 4.02 3 3 C2.01 3 1.02 3 0 3 C0 2.01 0 1.02 0 0 Z " fill="#294492" transform="translate(205,196)"/>
<path d="M0 0 C1.32 0 2.64 0 4 0 C4 0.66 4 1.32 4 2 C6.31 2 8.62 2 11 2 C11.33 2.66 11.66 3.32 12 4 C10.37399059 3.9129995 8.74910322 3.8048219 7.125 3.6875 C6.22007812 3.62949219 5.31515625 3.57148437 4.3828125 3.51171875 C2 3 2 3 0 0 Z " fill="#4577F0" transform="translate(256,121)"/>
<path d="M0 0 C0.66 0 1.32 0 2 0 C1.67 1.65 1.34 3.3 1 5 C-1.97 4.67 -4.94 4.34 -8 4 C-8 3.67 -8 3.34 -8 3 C-5.36 3 -2.72 3 0 3 C0 2.01 0 1.02 0 0 Z " fill="#4976F0" transform="translate(191,114)"/>
<path d="M0 0 C0.66 0.33 1.32 0.66 2 1 C1.34 2.32 0.68 3.64 0 5 C-1.32 5 -2.64 5 -4 5 C-2.68 3.35 -1.36 1.7 0 0 Z " fill="#3058C1" transform="translate(279,212)"/>
<path d="M0 0 C0.66 0.33 1.32 0.66 2 1 C1.67 3.64 1.34 6.28 1 9 C-0.89213369 6.61426621 -2.02391783 4.92824652 -3 2 C-2.01 2 -1.02 2 0 2 C0 1.34 0 0.68 0 0 Z " fill="#214BBC" transform="translate(195,207)"/>
<path d="M0 0 C0.66 0 1.32 0 2 0 C2.33 0.99 2.66 1.98 3 3 C3.66 2.67 4.32 2.34 5 2 C5.66 2.66 6.32 3.32 7 4 C6.01 5.32 5.02 6.64 4 8 C0 1.125 0 1.125 0 0 Z " fill="#3461B9" transform="translate(108,201)"/>
<path d="M0 0 C2.02045442 0.60183749 4.02111039 1.27306096 6 2 C6.33 2.66 6.66 3.32 7 4 C5.02 4 3.04 4 1 4 C0.67 2.68 0.34 1.36 0 0 Z " fill="#3353B5" transform="translate(75,124)"/>
<path d="M0 0 C0.66 0.33 1.32 0.66 2 1 C2 2.65 2 4.3 2 6 C1.01 6.33 0.02 6.66 -1 7 C-1.04254356 5.00045254 -1.04080783 2.99958364 -1 1 C-0.67 0.67 -0.34 0.34 0 0 Z " fill="#3A64D5" transform="translate(255,105)"/>
<path d="M0 0 C0.33 0 0.66 0 1 0 C0.25 6.75 0.25 6.75 -2 9 C-2.6875 7.3125 -2.6875 7.3125 -3 5 C-1.625 2.25 -1.625 2.25 0 0 Z " fill="#284EB3" transform="translate(264,243)"/>
<path d="M0 0 C0 0.99 0 1.98 0 3 C-1.98 3.33 -3.96 3.66 -6 4 C-6 3.01 -6 2.02 -6 1 C-3.92446352 0.4465236 -2.15634036 0 0 0 Z " fill="#4078EB" transform="translate(109,202)"/>
<path d="M0 0 C2 2 2 2 2.125 5.125 C2.08375 6.07375 2.0425 7.0225 2 8 C0.4375 6.8125 0.4375 6.8125 -1 5 C-0.6875 2.3125 -0.6875 2.3125 0 0 Z " fill="#4372EC" transform="translate(199,140)"/>
<path d="M0 0 C3.465 1.485 3.465 1.485 7 3 C6.34 3.66 5.68 4.32 5 5 C2.875 4.625 2.875 4.625 1 4 C0.67 2.68 0.34 1.36 0 0 Z " fill="#294795" transform="translate(68,120)"/>
</svg>
